<?xml version="1.0" standalone="no"?>
<!DOCTYPE svg PUBLIC "-//W3C//DTD SVG 20010904//EN"
 "http://www.w3.org/TR/2001/REC-SVG-20010904/DTD/svg10.dtd">
<svg version="1.0" xmlns="http://www.w3.org/2000/svg"
 width="1000.000000pt" height="1000.000000pt" viewBox="0 0 1000.000000 1000.000000"
 preserveAspectRatio="xMidYMid meet">
<metadata>
Created by potrace 1.14, written by Peter Selinger 2001-2017
</metadata>
<g transform="translate(0.000000,1000.000000) scale(0.100000,-0.100000)"
fill="#000000" stroke="none">
<path d="M3670 8859 c0 -5 -5 -7 -12 -3 -7 4 -8 3 -4 -4 5 -8 -2 -12 -18 -13
-33 -2 -39 -3 -51 -11 -5 -3 -26 -8 -45 -9 -41 -4 -59 -18 -55 -41 2 -11 -1
-15 -10 -12 -10 4 -16 -8 -21 -41 -5 -38 -10 -46 -24 -42 -14 4 -17 -2 -16
-27 1 -22 -3 -30 -14 -29 -10 2 -15 -6 -16 -25 0 -15 -4 -36 -9 -46 -6 -14 -5
-17 3 -12 15 9 15 1 0 -27 -16 -30 -17 -68 -1 -74 9 -4 9 -9 1 -23 -9 -14 -9
-22 1 -33 7 -9 9 -26 5 -44 -6 -26 -5 -27 8 -9 14 17 15 16 14 -17 -2 -30 2
-37 23 -42 20 -5 22 -8 10 -16 -11 -7 -11 -9 -1 -9 16 0 36 -19 45 -43 4 -11
16 -21 27 -24 11 -3 22 -13 25 -23 3 -10 15 -20 26 -23 12 -3 18 -10 15 -16
-4 -5 2 -16 12 -23 17 -12 37 -46 34 -59 -1 -4 6 -6 16 -5 10 0 16 -5 14 -13
-2 -7 7 -24 19 -37 11 -12 18 -27 14 -33 -3 -6 -2 -11 3 -11 5 0 7 -13 4 -29
-2 -16 1 -32 7 -35 6 -4 11 -16 11 -26 0 -10 9 -21 19 -25 13 -4 17 -12 13
-27 -3 -13 -1 -19 5 -15 6 4 10 -1 9 -11 0 -10 13 -24 34 -34 19 -10 28 -18
20 -18 -13 0 -13 -1 0 -10 8 -5 11 -10 7 -10 -5 0 -1 -8 9 -17 11 -11 13 -18
5 -21 -6 -2 -9 -8 -5 -13 3 -5 1 -9 -4 -9 -6 0 -8 -9 -5 -20 4 -16 0 -20 -18
-21 -13 0 -18 -3 -11 -6 16 -6 15 -21 -8 -68 -11 -22 -19 -45 -20 -51 0 -6
-11 -23 -24 -37 -13 -14 -21 -29 -17 -33 3 -4 -2 -4 -11 -1 -15 5 -18 0 -18
-29 0 -31 -3 -35 -22 -32 -19 2 -24 -2 -26 -25 -2 -19 -8 -27 -19 -25 -10 2
-17 -5 -18 -19 -2 -26 -8 -34 -27 -36 -7 -2 -15 -7 -17 -12 -2 -6 -11 -15 -19
-21 -8 -6 -12 -16 -8 -22 4 -8 2 -10 -7 -6 -8 3 -18 0 -23 -7 -4 -8 -3 -10 4
-5 7 4 12 1 12 -8 0 -8 -5 -18 -12 -22 -7 -5 -9 -2 -3 7 4 8 -4 1 -19 -15 -15
-17 -26 -41 -26 -58 0 -30 -9 -35 -28 -16 -9 9 -11 4 -8 -20 4 -26 1 -30 -15
-27 -12 2 -19 -2 -19 -11 0 -8 -4 -14 -10 -14 -5 0 -10 -6 -10 -13 0 -7 -11
-23 -25 -35 -14 -12 -25 -26 -25 -32 0 -5 -4 -9 -8 -8 -14 5 -82 -55 -82 -71
-1 -20 -48 -66 -78 -75 -16 -6 -22 -15 -21 -34 0 -15 -3 -58 -6 -97 -4 -38 -7
-79 -6 -89 0 -11 -4 -28 -10 -38 -10 -19 -19 -71 -21 -120 -1 -34 -11 -36 -26
-4 -8 19 -7 27 11 47 12 12 15 18 7 12 -11 -8 -20 -6 -35 10 -11 11 -15 17
-10 14 6 -3 17 -1 25 5 12 8 12 9 -2 4 -10 -3 -21 1 -26 10 -5 9 -12 15 -15
15 -19 -3 -21 0 -7 9 11 8 5 9 -22 7 -35 -4 -36 -3 -27 20 5 14 5 22 0 19 -5
-4 -12 0 -14 6 -4 10 -8 10 -16 -1 -7 -11 -15 -12 -33 -5 -29 13 -83 11 -100
-4 -8 -6 -26 -9 -41 -8 -16 2 -34 -2 -40 -9 -7 -6 -20 -11 -30 -9 -9 1 -15 -2
-12 -7 3 -4 -9 -8 -27 -8 -18 1 -45 -3 -59 -9 -19 -8 -30 -7 -38 1 -9 9 -13 6
-17 -10 -6 -21 -28 -24 -56 -7 -6 4 -8 3 -5 -3 9 -14 -35 -25 -59 -16 -10 4
-15 2 -11 -3 5 -9 -10 -13 -57 -14 -10 -1 -28 -10 -40 -21 -13 -13 -31 -19
-48 -17 -15 3 -25 1 -22 -4 3 -4 -2 -8 -10 -8 -8 0 -22 -7 -31 -17 -14 -14
-18 -14 -26 -2 -7 11 -9 11 -9 -3 0 -11 -5 -15 -15 -12 -8 4 -15 2 -15 -4 0
-5 -12 -7 -26 -4 -17 3 -25 1 -21 -5 4 -6 -8 -13 -27 -17 -25 -5 -36 -13 -38
-28 -3 -21 -9 -24 -83 -35 -22 -3 -45 -12 -52 -20 -6 -8 -16 -12 -22 -9 -5 4
-12 2 -16 -4 -3 -5 -14 -10 -24 -10 -10 0 -28 -11 -41 -25 -23 -25 -50 -33
-50 -16 0 5 -12 3 -27 -4 -16 -7 -39 -15 -53 -17 -14 -2 -33 -13 -43 -26 -10
-12 -22 -20 -27 -17 -5 3 -12 0 -16 -6 -4 -8 -3 -9 4 -5 7 4 12 3 12 -3 0 -5
-9 -13 -20 -16 -11 -3 -20 -11 -20 -16 0 -7 -6 -7 -17 0 -14 7 -20 4 -30 -17
-8 -15 -11 -19 -9 -10 4 12 -1 16 -15 15 -11 -1 -17 -7 -15 -14 3 -8 -1 -10
-11 -6 -13 5 -15 2 -10 -11 4 -9 3 -15 -1 -12 -5 3 -20 -1 -35 -9 -15 -8 -27
-10 -27 -4 0 5 -5 9 -10 9 -6 0 -10 -8 -8 -17 2 -14 -3 -17 -22 -15 -18 2 -21
0 -11 -6 9 -7 10 -12 2 -16 -6 -4 -11 -5 -11 -1 0 3 -10 0 -22 -7 -13 -7 -27
-11 -32 -10 -4 2 -13 -1 -20 -6 -6 -5 -28 -12 -48 -16 -24 -4 -38 -12 -38 -22
0 -8 -4 -12 -10 -9 -5 3 -10 1 -10 -5 0 -6 -4 -8 -10 -5 -5 3 -10 0 -10 -7 0
-10 -2 -10 -8 0 -10 16 -52 24 -52 11 0 -6 -3 -8 -7 -6 -5 3 -19 0 -33 -6 -14
-5 -49 -11 -79 -12 -35 -2 -56 -7 -62 -17 -6 -11 -21 -14 -55 -11 -25 3 -44 1
-41 -4 3 -4 -14 -8 -36 -8 -23 0 -48 -4 -56 -10 -11 -7 -13 -7 -8 2 5 8 1 8
-18 0 -13 -7 -20 -13 -15 -15 20 -7 9 -20 -21 -26 -19 -4 -33 -13 -36 -26 -3
-11 -9 -18 -13 -15 -4 3 -14 -2 -21 -11 -10 -12 -10 -15 2 -12 17 4 14 -29 -4
-47 -16 -16 -14 -100 4 -121 9 -12 9 -15 2 -10 -7 4 -13 3 -13 -3 0 -5 5 -11
11 -13 6 -2 12 -16 12 -31 0 -17 5 -27 14 -27 10 0 13 -6 9 -16 -3 -8 -2 -13
2 -10 5 3 14 -4 22 -14 8 -10 17 -17 22 -14 4 3 5 -2 2 -10 -3 -9 -2 -16 4
-16 5 0 13 -11 16 -24 3 -13 15 -26 25 -29 14 -3 18 -11 15 -25 -4 -12 0 -22
11 -26 9 -3 14 -10 11 -15 -3 -5 1 -15 10 -22 13 -11 15 -10 12 6 -1 10 3 20
11 23 8 3 11 0 7 -6 -4 -6 2 -20 13 -31 11 -11 17 -22 14 -25 -3 -3 4 -4 15
-1 14 2 19 -1 16 -9 -6 -15 22 -29 38 -20 6 4 6 -2 -1 -14 -14 -26 3 -40 19
-15 10 17 10 17 8 -2 -2 -12 3 -20 12 -21 35 -3 40 -5 37 -16 -1 -7 6 -12 15
-10 19 3 46 -19 67 -53 l13 -20 -6 20 c-6 20 -6 20 9 1 8 -11 15 -16 15 -10 0
5 3 5 8 -1 12 -17 121 -69 128 -62 11 11 33 -26 34 -55 0 -15 -5 -30 -10 -33
-6 -3 -10 -15 -10 -26 0 -10 -5 -19 -11 -19 -5 0 -9 -8 -7 -17 1 -10 -2 -24
-7 -32 -5 -10 -4 -16 3 -19 13 -4 17 -23 4 -21 -19 3 -22 -3 -11 -22 8 -15 8
-19 0 -15 -15 9 -13 -3 3 -33 14 -25 11 -49 -8 -64 -7 -5 -4 -7 7 -3 10 3 16
2 13 -3 -3 -5 0 -24 8 -42 7 -19 11 -40 9 -46 -3 -7 0 -13 7 -13 6 0 9 -4 6
-8 -10 -16 42 -134 55 -126 5 3 9 -2 9 -11 0 -9 -5 -13 -11 -10 -6 4 -5 -2 2
-13 7 -11 18 -18 25 -15 9 3 12 -5 9 -27 -3 -25 -1 -31 10 -26 11 4 15 -2 15
-24 0 -17 3 -29 8 -29 20 3 25 -2 12 -12 -12 -9 -11 -10 8 -6 12 3 20 1 17 -3
-3 -5 0 -12 6 -15 5 -4 8 -14 5 -22 -4 -10 -2 -13 7 -10 7 3 19 -5 27 -16 12
-20 12 -21 -3 -8 -12 9 -17 10 -17 2 0 -6 7 -14 15 -16 51 -16 50 -16 35 -25
-8 -6 -12 -10 -7 -10 4 0 16 5 27 12 10 7 23 9 27 5 4 -5 1 -12 -7 -17 -13 -9
-13 -10 0 -10 8 0 21 -9 28 -20 7 -12 18 -17 29 -13 12 5 14 3 8 -7 -6 -9 -4
-11 4 -6 7 5 21 0 32 -10 10 -9 19 -14 19 -10 0 4 7 1 15 -8 11 -11 23 -12 45
-6 17 5 30 6 30 2 0 -4 5 0 10 8 6 10 10 11 10 3 0 -10 6 -10 25 -1 13 6 22
15 19 19 -3 5 2 6 11 3 9 -4 25 2 36 12 28 25 24 102 -5 124 -12 8 -24 14 -28
12 -5 -1 -8 5 -8 13 0 9 -7 15 -16 13 -9 -2 -18 4 -19 12 -5 29 -54 105 -66
102 -9 -2 -9 1 1 12 10 13 10 16 -4 16 -9 0 -16 8 -16 20 0 14 -7 20 -22 20
-17 0 -19 3 -10 9 17 10 15 23 -4 34 -8 4 -14 16 -14 25 0 10 -5 23 -12 30 -6
6 -13 20 -15 29 -4 22 -14 84 -15 100 -1 7 -4 10 -8 8 -3 -2 -12 0 -20 6 -8 5
-10 9 -5 9 11 0 13 130 1 148 -4 7 -1 12 9 12 11 0 15 5 11 16 -3 8 -2 13 3
10 4 -3 17 1 27 9 24 18 54 19 54 3 0 -9 4 -8 11 2 8 11 12 12 16 3 2 -7 17
-13 31 -13 15 0 40 -7 56 -15 16 -8 50 -15 75 -16 95 0 126 -4 133 -14 5 -6 8
-3 8 7 0 11 5 15 15 12 8 -4 21 -1 29 5 11 9 15 8 20 -5 6 -15 8 -15 28 2 12
11 18 13 14 7 -13 -23 59 -15 90 9 15 13 25 17 20 10 -4 -7 -2 -12 6 -13 23
-1 50 -7 55 -12 2 -3 18 -1 34 3 16 5 29 5 29 0 0 -4 30 -8 68 -7 37 0 85 -1
107 -1 22 -1 51 -1 65 -1 27 0 95 -7 95 -11 0 -1 35 -3 78 -4 53 -1 80 -5 86
-14 6 -11 17 -11 44 -4 31 9 35 8 30 -6 -5 -11 -2 -14 10 -9 9 4 24 10 34 14
10 4 14 3 9 -5 -3 -6 -1 -14 5 -18 8 -4 9 -3 5 4 -10 16 7 15 23 0 11 -11 12
-10 6 2 -6 12 -5 13 6 3 7 -7 21 -13 31 -13 10 0 18 -4 18 -9 0 -5 20 -11 45
-13 25 -2 45 1 45 5 0 5 5 5 12 1 18 -11 81 -6 90 8 6 10 8 10 8 -1 0 -8 7
-11 20 -8 11 3 20 1 20 -3 0 -5 9 -8 20 -7 11 1 20 6 20 11 0 5 7 1 15 -10 8
-10 15 -14 15 -7 0 7 7 10 16 6 11 -4 22 1 30 12 10 14 14 15 14 4 0 -12 2
-12 10 1 6 10 10 11 10 3 0 -7 7 -13 15 -13 8 0 15 6 15 13 0 9 2 9 9 -1 5 -8
32 -15 70 -17 51 -3 61 0 62 13 0 11 2 12 6 5 2 -7 13 -13 24 -13 10 0 19 6
19 13 0 9 2 9 8 0 12 -18 51 -12 47 7 -2 9 3 17 11 17 9 0 13 -7 9 -21 -3 -12
-2 -15 1 -8 3 6 11 9 16 6 6 -4 8 -3 5 3 -4 6 5 15 19 22 17 7 23 8 19 0 -5
-7 -2 -7 11 0 11 5 33 13 49 17 17 4 33 8 38 9 4 2 21 3 38 4 20 1 28 5 23 13
-5 7 -3 8 6 3 17 -10 190 -13 190 -2 0 4 -5 7 -12 7 -6 0 -8 3 -5 7 4 3 16 -2
27 -12 13 -11 20 -14 20 -6 0 7 10 12 23 11 12 -1 24 -1 27 0 19 7 108 4 119
-4 12 -9 13 -8 7 4 -7 11 -4 10 9 -2 17 -16 19 -16 32 0 8 9 11 11 7 3 -5 -11
-2 -13 17 -8 13 4 28 7 32 7 5 0 5 6 1 13 -5 8 -3 8 9 -2 16 -12 49 -12 174 1
6 1 9 7 6 15 -7 17 14 17 21 1 3 -9 10 -7 21 7 16 20 16 20 31 1 13 -18 14
-18 14 -2 0 12 5 16 16 12 10 -4 18 1 21 13 3 12 17 23 34 26 16 4 29 11 29
16 0 5 29 8 64 7 52 -3 63 -6 61 -19 -3 -12 5 -14 42 -12 28 2 42 0 38 -7 -3
-6 0 -7 9 -4 9 3 16 9 16 13 0 11 194 4 198 -7 1 -5 12 -7 24 -4 16 4 19 2 13
-8 -5 -9 -4 -11 4 -6 6 4 9 12 6 17 -4 5 5 9 19 9 13 0 27 -6 29 -12 4 -10 6
-10 6 -1 1 7 8 10 16 7 8 -4 22 -1 30 6 17 14 38 4 29 -13 -5 -9 -4 -9 5 -1 8
7 25 9 47 4 27 -6 36 -4 44 9 9 15 9 15 10 0 0 -11 8 -16 24 -15 13 0 22 4 19
9 -6 9 11 9 21 -1 4 -4 36 -7 70 -8 34 -1 73 -7 85 -14 13 -6 21 -7 17 -2 -4
7 3 8 21 3 16 -4 43 -7 61 -5 18 1 39 -4 47 -13 13 -13 15 -12 15 9 0 16 3 19
9 10 4 -7 22 -14 39 -14 17 -1 33 -7 36 -15 8 -19 26 -16 26 4 0 13 3 14 12 5
16 -16 45 -15 51 2 4 9 15 12 33 8 20 -4 25 -2 19 8 -6 9 -3 9 15 0 12 -6 31
-10 41 -7 12 3 19 0 19 -9 0 -8 5 -14 11 -14 5 0 7 5 4 10 -3 6 1 10 9 10 9 0
16 -4 16 -10 0 -5 5 -10 11 -10 5 0 8 4 5 9 -3 5 1 12 10 15 12 4 14 1 9 -14
-5 -16 -3 -19 12 -13 10 4 21 11 25 17 5 7 8 5 8 -5 0 -9 9 -19 20 -22 17 -4
20 -2 15 16 -4 12 -3 17 2 11 4 -6 18 -16 31 -23 18 -10 23 -9 28 4 4 8 11 12
18 8 6 -5 22 -9 36 -9 14 -1 26 -3 28 -4 1 -1 7 -4 12 -5 6 -1 11 -3 13 -4 9
-8 47 -9 43 -2 -3 5 5 8 19 7 14 0 25 -6 25 -13 0 -9 27 -11 38 -3 1 2 10 3
20 4 9 1 22 4 28 8 6 4 14 5 18 1 10 -10 126 -9 126 1 0 4 8 5 18 1 29 -12 47
-13 59 -3 7 5 16 7 22 4 5 -4 16 1 25 10 9 8 21 12 27 8 6 -3 15 0 20 7 8 12
11 12 19 -1 9 -13 10 -13 10 0 0 12 2 12 9 2 7 -11 9 -11 14 2 4 9 13 13 21
10 8 -3 17 0 21 5 3 6 11 9 16 6 5 -4 9 0 9 7 0 20 31 -29 36 -57 2 -14 0 -25
-5 -25 -6 0 -8 -7 -5 -15 4 -8 1 -15 -7 -15 -7 0 -9 -3 -6 -7 4 -3 2 -12 -4
-19 -6 -8 -7 -14 0 -18 6 -4 8 -13 5 -21 -4 -8 -10 -13 -15 -10 -12 8 -42 -42
-35 -60 4 -10 -3 -20 -19 -27 -28 -13 -29 -16 -15 -53 5 -14 6 -24 1 -21 -5 3
-12 -2 -16 -11 -3 -10 -1 -19 4 -21 6 -2 11 -8 11 -13 0 -6 -6 -7 -12 -3 -10
6 -10 5 -1 -8 7 -8 10 -18 7 -21 -8 -7 45 -77 58 -77 5 0 16 -6 24 -14 11 -11
11 -16 1 -19 -7 -4 -5 -6 6 -7 27 -4 31 -5 53 -18 12 -6 23 -10 25 -9 2 1 -3
-5 -11 -14 -8 -9 -18 -15 -22 -13 -3 3 -16 -9 -28 -26 -12 -16 -18 -30 -14
-30 3 0 1 -6 -5 -14 -9 -10 -9 -21 0 -42 7 -16 13 -33 14 -39 1 -5 3 -14 5
-20 2 -9 4 -21 8 -64 1 -8 5 -11 9 -8 11 12 32 -27 21 -40 -5 -7 -6 -18 -2
-25 5 -7 9 -17 9 -23 1 -5 6 -9 12 -8 6 1 9 -6 6 -17 -4 -16 -2 -19 11 -14 9
4 16 3 14 -2 -4 -18 14 -54 27 -54 9 0 12 -6 9 -15 -4 -9 0 -15 9 -15 14 0 34
-63 30 -98 0 -7 5 -11 12 -8 9 3 12 0 8 -10 -3 -7 0 -14 7 -14 6 0 8 -4 5 -10
-3 -5 2 -10 11 -10 10 0 14 -3 11 -6 -3 -4 2 -18 13 -31 18 -23 21 -68 5 -93
-3 -6 0 -7 9 -4 11 4 16 0 16 -11 0 -9 -4 -13 -10 -10 -6 3 -7 -1 -4 -9 3 -9
10 -16 14 -16 12 0 19 -36 10 -51 -5 -7 -2 -21 6 -33 17 -25 18 -40 3 -30 -7
4 -10 1 -7 -7 3 -8 10 -13 15 -12 6 1 8 -9 5 -23 -2 -13 1 -31 8 -39 9 -11 9
-15 1 -15 -8 0 -11 -23 -9 -68 1 -37 -1 -73 -6 -80 -4 -6 -5 -16 -1 -21 3 -5
1 -13 -5 -16 -8 -5 -7 -12 2 -23 10 -12 10 -14 1 -8 -7 4 -13 3 -13 -3 0 -5 6
-12 13 -14 9 -4 9 -6 -1 -6 -7 -1 -11 -5 -7 -10 7 -12 -16 -62 -26 -56 -4 3
-5 -4 -2 -15 3 -12 -1 -22 -11 -26 -9 -3 -16 -10 -16 -16 0 -5 5 -6 11 -2 14
8 -9 -38 -25 -49 -8 -6 -7 -10 1 -14 10 -3 10 -10 1 -26 -6 -12 -12 -35 -13
-52 -1 -16 -12 -47 -24 -68 -12 -21 -19 -42 -16 -47 3 -4 -2 -10 -10 -14 -8
-3 -15 -13 -15 -21 0 -9 -4 -13 -10 -10 -6 4 -10 -5 -10 -20 0 -15 -4 -24 -10
-20 -5 3 -10 2 -10 -4 0 -5 -3 -17 -7 -27 -5 -13 -3 -15 8 -10 8 4 4 -1 -8
-12 -24 -21 -22 -57 6 -80 9 -8 10 -11 4 -7 -7 3 -13 1 -13 -4 0 -6 5 -11 10
-11 12 0 9 -22 -5 -32 -6 -5 -4 -8 4 -8 8 0 23 -8 34 -18 19 -17 20 -16 8 8
-11 24 -11 24 3 5 8 -11 20 -25 25 -31 5 -7 7 -15 3 -20 -4 -4 -1 -3 7 1 8 5
27 9 43 9 23 1 27 -2 22 -19 -5 -18 -5 -18 7 -4 18 22 52 29 75 16 16 -9 17
-8 7 4 -10 12 -8 15 11 17 44 3 76 22 86 47 8 21 14 25 33 19 12 -3 19 -3 15
1 -4 5 -2 15 5 23 6 9 7 13 1 9 -6 -3 -11 1 -11 10 0 9 9 18 19 21 19 5 25 37
8 47 -5 3 -10 12 -9 18 0 9 2 8 6 -1 2 -6 9 -9 14 -6 6 3 5 11 -2 20 -10 12
-9 13 6 8 12 -5 16 -3 13 6 -2 8 4 22 15 33 11 11 15 22 10 26 -15 11 -10 74
8 92 10 10 19 15 22 13 2 -3 2 6 0 20 -4 17 1 27 15 35 11 6 22 7 26 4 3 -3 6
17 6 46 0 29 5 62 11 73 10 18 9 20 -5 15 -11 -5 -16 -1 -16 13 0 11 3 20 8
20 4 0 13 9 20 21 11 17 11 20 0 14 -10 -6 -10 -5 -1 5 6 7 9 19 6 26 -3 8 1
14 8 14 11 0 11 3 -1 10 -8 5 -10 10 -4 10 8 0 11 24 10 69 -1 38 2 67 6 65
10 -7 10 11 -1 58 -6 26 -5 37 3 35 13 -2 8 45 -6 54 -7 4 -6 9 1 13 8 5 7 15
-4 35 -11 22 -11 31 -2 41 9 10 9 11 0 6 -8 -4 -13 -1 -13 8 0 8 5 16 10 18 6
2 -2 16 -16 31 -14 15 -23 34 -20 42 3 8 1 17 -4 20 -6 4 -7 13 -1 23 4 9 6
23 4 30 -3 7 1 10 10 6 10 -3 18 2 22 15 3 12 12 27 18 33 22 23 57 88 47 88
-6 0 -10 5 -10 11 0 6 8 9 18 7 15 -4 18 1 17 28 0 22 4 34 12 34 11 0 18 19
14 43 0 4 6 7 15 7 11 0 14 5 10 16 -4 9 -1 23 5 30 6 8 9 14 5 14 -4 0 0 13
9 30 9 17 11 30 5 30 -5 0 -1 16 10 35 11 19 23 53 26 75 4 22 11 40 16 40 6
0 8 13 6 29 -2 17 0 29 6 28 5 -1 12 6 14 17 3 13 0 16 -10 10 -11 -7 -11 -5
0 9 8 9 11 25 7 38 -5 16 -4 19 6 14 9 -6 11 -2 6 14 -3 14 0 24 8 27 13 5 14
28 2 40 -4 4 0 18 9 32 8 13 13 30 10 38 -3 8 -2 14 2 14 4 0 7 25 7 56 -1 30
2 57 7 60 4 3 4 13 -2 24 -7 13 -6 19 5 24 8 3 15 16 14 28 0 13 4 39 9 58 5
19 7 53 5 75 -7 62 -4 100 6 103 5 2 7 12 4 22 -3 12 0 20 6 20 7 0 9 4 6 10
-9 14 24 72 38 67 7 -3 11 -9 10 -14 -1 -6 10 -8 25 -6 22 4 24 2 12 -7 -12
-9 -10 -11 13 -7 24 4 28 2 24 -14 -4 -13 0 -19 12 -19 10 0 17 -8 18 -20 2
-23 30 -66 41 -62 4 1 9 -7 10 -19 2 -13 0 -19 -7 -15 -6 4 -11 2 -11 -3 0 -6
4 -11 10 -11 5 0 6 -7 3 -17 -5 -12 -3 -14 8 -8 12 7 12 6 1 -7 -11 -14 -11
-18 0 -25 7 -4 14 -24 15 -43 1 -19 4 -52 7 -72 2 -21 1 -38 -4 -38 -4 0 -6
-9 -3 -20 3 -13 0 -20 -8 -20 -12 0 -12 -2 0 -9 8 -5 11 -16 8 -25 -4 -10 -1
-16 8 -16 13 0 15 -33 4 -55 -3 -6 -4 -26 -2 -45 4 -40 4 -40 0 -97 -1 -23 1
-39 4 -37 15 9 15 -22 1 -43 -11 -17 -11 -23 -2 -23 9 0 9 -4 2 -13 -12 -14
-13 -77 -1 -77 7 0 7 -7 -1 -45 -1 -5 -1 -12 0 -15 5 -14 4 -68 -2 -64 -7 5
-2 -61 6 -75 3 -5 0 -14 -8 -20 -8 -7 -12 -28 -11 -56 1 -25 -2 -48 -7 -51 -5
-3 -2 -15 8 -25 10 -11 12 -19 5 -19 -7 0 -10 -10 -7 -25 3 -13 1 -27 -4 -30
-4 -3 -11 -21 -15 -42 -5 -27 -9 -33 -15 -22 -7 10 -8 6 -6 -13 1 -15 8 -33
14 -41 10 -12 8 -16 -9 -20 -19 -5 -20 -8 -9 -22 11 -13 10 -15 -2 -10 -12 5
-15 0 -13 -19 2 -14 6 -29 9 -34 3 -5 -1 -15 -9 -22 -8 -7 -12 -16 -9 -21 3
-5 0 -9 -7 -9 -7 0 -8 -4 -2 -12 5 -7 9 -20 8 -28 -1 -8 -3 -23 -3 -33 -1 -10
-7 -15 -12 -12 -7 4 -9 -2 -4 -19 4 -16 1 -32 -6 -41 -10 -12 -10 -15 0 -15 7
0 10 -8 7 -20 -3 -11 0 -20 6 -20 7 0 4 -7 -7 -15 -10 -8 -19 -27 -20 -44 0
-21 -4 -27 -12 -20 -8 6 -14 4 -18 -6 -3 -9 -2 -13 4 -10 6 3 10 1 10 -4 0 -6
-5 -11 -11 -11 -6 0 -8 -7 -5 -16 6 -15 4 -15 -11 -3 -11 9 -14 10 -9 2 4 -7
2 -13 -4 -13 -6 0 -5 -12 4 -34 13 -30 13 -35 -1 -40 -11 -4 -14 -16 -11 -37
3 -16 0 -33 -5 -36 -6 -3 -7 -1 -3 5 14 23 -2 12 -18 -12 -13 -21 -20 -42 -30
-105 -2 -8 -11 -20 -21 -27 -10 -7 -15 -20 -12 -28 4 -9 3 -15 -1 -15 -23 4
-32 -4 -32 -29 0 -16 3 -32 7 -36 20 -20 8 -42 -20 -37 -5 1 -5 -4 -1 -11 12
-19 13 -38 3 -38 -6 0 -7 -5 -4 -11 11 -17 -4 -59 -21 -59 -8 0 -12 -5 -9 -10
4 -6 12 -7 18 -4 7 4 3 -2 -8 -13 -11 -11 -21 -16 -23 -12 -2 5 -7 9 -10 9 -9
0 -7 -53 2 -68 4 -7 2 -12 -3 -12 -6 0 -11 5 -11 10 0 6 -3 10 -7 10 -10 0
-33 -49 -33 -68 0 -7 -5 -10 -12 -6 -6 4 -8 3 -5 -4 4 -5 4 -18 1 -27 -5 -13
-8 -14 -15 -3 -7 10 -9 9 -9 -4 0 -10 6 -18 13 -18 9 0 9 -2 -1 -9 -8 -4 -13
-11 -13 -15 3 -19 0 -27 -8 -22 -5 3 -12 -1 -15 -10 -4 -10 -2 -13 6 -8 17 11
-3 -19 -22 -33 -11 -8 -15 -22 -12 -41 5 -35 -33 -116 -50 -106 -6 4 -8 3 -4
-4 3 -6 -2 -17 -11 -24 -28 -20 -45 -66 -33 -87 9 -18 -3 -29 -50 -44 -12 -4
-11 -6 2 -6 11 -1 15 -6 12 -16 -5 -11 -10 -13 -19 -5 -15 12 -26 3 -18 -16 3
-8 0 -14 -6 -14 -6 0 -11 -5 -11 -11 0 -7 -8 -18 -17 -25 -11 -8 -13 -13 -6
-14 8 0 4 -10 -9 -25 -22 -25 -45 -35 -32 -13 4 7 3 8 -5 4 -9 -6 -9 -11 1
-24 10 -12 10 -14 1 -8 -8 4 -13 2 -13 -4 0 -6 -5 -8 -12 -4 -7 5 -8 3 -3 -6
4 -7 2 -16 -6 -21 -11 -7 -11 -9 -1 -9 7 0 11 -4 8 -9 -3 -5 -16 -7 -28 -3
-14 3 -19 1 -14 -6 3 -6 -10 -27 -29 -48 -19 -20 -35 -41 -35 -46 0 -5 -10 -6
-22 -3 -17 6 -20 4 -15 -9 4 -9 3 -15 -1 -15 -22 4 -32 -3 -32 -22 0 -13 -4
-18 -12 -13 -8 5 -8 2 1 -10 12 -15 12 -17 0 -14 -10 2 -13 -5 -11 -22 2 -17
0 -21 -6 -12 -12 17 -29 -23 -27 -64 1 -25 -3 -30 -17 -26 -18 4 -25 -17 -11
-31 9 -10 10 -56 1 -51 -4 3 -8 -4 -8 -15 0 -10 -5 -21 -12 -23 -13 -5 -20
-116 -7 -123 4 -3 6 -12 2 -21 -3 -8 3 -22 13 -30 11 -9 13 -13 7 -9 -14 7
-18 -11 -5 -19 4 -2 7 -21 6 -42 -1 -21 4 -51 12 -66 10 -19 12 -41 8 -69 -6
-32 -4 -40 5 -34 10 6 11 3 2 -13 -8 -15 -8 -24 2 -34 6 -7 13 -29 14 -48 2
-19 7 -36 13 -38 6 -2 8 -8 4 -13 -3 -5 -1 -9 5 -9 5 0 8 -16 6 -35 -2 -19 1
-35 7 -35 5 0 3 -7 -6 -15 -8 -8 -13 -24 -11 -35 2 -11 -2 -20 -8 -20 -7 -1
-6 -5 4 -13 9 -7 14 -17 12 -24 -2 -6 2 -17 10 -25 10 -9 12 -20 6 -35 -6 -16
-4 -23 8 -27 14 -6 14 -9 1 -24 -21 -26 -23 -128 -3 -159 10 -14 12 -22 6 -19
-15 10 -14 -17 2 -33 10 -11 9 -13 -6 -8 -17 6 -17 5 -3 -15 12 -17 13 -25 3
-37 -9 -12 -9 -13 1 -7 6 4 12 4 13 -1 6 -61 6 -72 -2 -68 -5 4 -9 1 -9 -4 0
-7 60 -11 180 -11 165 0 180 2 189 19 6 10 8 21 5 24 -8 8 -12 57 -5 61 8 5 6
66 -3 94 -4 12 -12 20 -17 17 -5 -3 -7 0 -4 7 13 33 12 80 -1 85 -8 3 -14 12
-14 20 0 8 4 12 9 9 5 -3 12 1 15 10 4 11 2 15 -6 11 -9 -3 -14 10 -15 44 -1
28 2 49 8 49 6 0 7 5 4 10 -4 6 -10 8 -14 6 -6 -4 -6 19 0 109 0 6 -2 19 -4
30 -2 11 1 23 7 27 8 5 7 11 -2 20 -9 9 -12 9 -12 -1 0 -7 -4 -9 -10 -6 -6 4
-5 13 2 25 10 15 10 22 0 32 -6 6 -12 22 -12 35 0 13 -4 23 -10 23 -5 0 -6 7
-3 17 5 12 3 14 -8 9 -8 -4 -6 -1 4 7 16 14 17 18 4 49 -9 22 -11 42 -6 56 6
15 5 21 -1 17 -7 -4 -9 10 -6 39 2 31 -1 46 -8 46 -14 0 -16 74 -2 87 5 5 6 2
1 -6 -6 -10 -4 -12 4 -7 7 5 10 14 7 22 -3 8 -2 14 3 14 4 0 6 11 3 25 -3 19
0 25 13 25 13 0 15 3 7 13 -8 9 -5 21 10 45 11 17 23 30 27 27 4 -2 8 3 8 11
0 8 -6 13 -12 10 -7 -2 10 18 36 45 28 29 57 49 69 49 16 0 20 4 16 16 -4 11
-2 15 8 11 11 -4 13 -1 9 10 -5 12 -3 14 7 8 10 -6 12 -3 8 13 -4 15 -2 19 8
15 8 -3 17 5 23 20 5 14 15 28 20 32 6 3 11 15 11 26 0 10 7 19 15 19 8 0 15
7 15 15 0 8 3 15 8 15 4 0 12 11 19 25 8 19 8 25 0 25 -7 0 -6 4 3 9 8 6 18 7
22 5 4 -3 8 2 8 10 0 9 4 16 9 16 4 0 8 8 7 17 0 10 3 19 8 20 9 2 22 23 53
86 11 20 22 35 25 32 3 -3 3 5 1 19 -4 18 0 26 16 31 12 3 19 10 16 15 -3 5 3
18 15 30 11 11 18 20 15 20 -3 0 1 10 10 23 8 13 12 27 8 30 -3 4 -1 7 6 7 7
0 11 7 8 15 -4 8 -1 17 5 21 7 5 8 2 3 -6 -5 -8 -4 -11 3 -6 6 4 9 13 5 21 -3
9 -1 21 5 28 5 6 12 24 16 40 3 15 11 27 16 27 5 0 7 7 4 15 -4 8 -1 15 5 15
6 0 11 6 11 13 0 15 35 47 51 47 6 0 9 6 6 13 -21 51 -21 50 5 45 20 -4 24 -1
21 13 -3 9 0 20 6 23 7 5 7 15 1 32 -6 14 -6 23 -1 20 15 -9 48 66 45 102 -1
17 2 32 7 32 6 0 7 5 4 10 -3 6 -1 10 5 10 6 0 8 5 5 10 -3 6 -2 10 3 10 9 0
26 55 23 76 -1 7 5 14 13 17 9 4 12 14 9 28 -5 16 -3 20 6 14 10 -6 11 -3 1
14 -9 18 -7 28 10 56 16 25 18 35 8 35 -10 1 -10 3 2 13 8 7 17 23 18 37 2 14
9 31 14 37 6 7 8 21 6 31 -3 12 2 24 15 31 15 10 17 15 8 21 -10 6 -10 12 0
29 8 11 17 21 22 21 4 0 5 5 2 10 -3 5 0 10 7 11 7 0 4 4 -7 9 -19 8 -19 9 2
9 19 1 21 4 14 24 -6 14 -6 30 0 38 7 11 9 10 10 -6 1 -27 18 40 20 85 1 19 5
40 9 45 3 6 6 17 5 25 -1 8 2 23 7 32 4 9 10 46 12 81 2 36 9 74 15 85 14 26
14 42 1 22 -6 -9 -10 -10 -10 -3 0 6 5 15 10 18 6 3 10 13 10 21 0 8 -4 12
-10 9 -5 -3 -7 0 -4 9 3 8 12 12 19 10 17 -7 29 12 14 22 -8 5 -9 3 -4 -6 5
-9 4 -11 -4 -6 -9 6 -9 11 -1 21 6 7 10 17 9 21 -1 5 0 11 1 14 6 16 6 52 -1
56 -4 2 -3 19 2 37 6 17 11 37 12 42 2 6 6 16 11 23 4 7 3 19 -3 26 -6 7 -8
16 -4 19 3 4 0 13 -7 22 -11 13 -10 14 4 9 19 -7 21 7 4 24 -9 9 -9 19 0 45
16 44 23 107 12 107 -5 0 -7 7 -3 16 3 9 0 20 -8 25 -10 6 -10 9 -1 9 6 0 12
9 12 21 0 11 -4 18 -8 15 -4 -2 -8 23 -7 57 0 34 -4 66 -10 70 -5 5 1 5 14 2
16 -5 21 -4 17 4 -4 6 -14 11 -23 11 -12 0 -13 3 -3 15 7 8 8 20 3 27 -12 19
-10 217 2 215 6 -1 8 5 6 13 -2 8 -4 24 -6 35 -1 11 -3 20 -4 20 -2 0 -4 8 -6
18 -3 15 -1 16 11 6 12 -10 13 -9 7 7 -3 10 -11 22 -17 26 -6 4 -5 12 3 22 10
12 11 19 2 30 -15 18 -22 56 -10 56 10 0 12 30 3 55 -5 13 -8 14 -15 3 -7 -10
-9 -9 -9 4 0 9 6 19 13 22 6 4 2 4 -10 2 -15 -3 -23 1 -23 10 0 8 4 14 9 14 6
0 9 9 8 19 0 11 -4 18 -8 15 -9 -5 -19 21 -19 51 0 12 -7 28 -15 35 -18 15
-20 44 -2 35 6 -4 2 2 -9 12 -12 11 -25 29 -28 41 -4 13 -12 19 -18 16 -6 -4
-8 -2 -5 3 8 13 -51 83 -70 83 -11 0 -18 14 -11 23 5 5 -47 53 -54 50 -8 -4
-38 25 -38 36 0 5 16 23 35 42 20 19 45 53 57 77 12 24 30 48 40 53 10 5 18
16 18 24 0 8 3 15 8 15 10 0 30 49 36 90 2 19 5 35 6 35 1 0 3 11 6 24 2 14 9
30 15 38 6 7 8 13 4 13 -5 0 0 10 11 22 14 16 14 19 2 10 -14 -11 -16 -11 -11
7 3 12 9 18 14 15 5 -3 9 4 9 15 0 10 4 21 9 23 12 4 18 109 8 126 -5 6 -4 12
1 12 15 0 21 37 9 49 -6 6 -8 11 -4 11 4 0 3 9 -3 20 -8 15 -8 20 2 20 8 1 5
7 -6 15 -14 11 -16 15 -5 15 11 1 10 4 -3 14 -10 7 -18 18 -18 24 0 6 -9 16
-20 22 -11 6 -18 14 -16 19 5 7 -15 28 -43 46 -10 6 -12 4 -7 -6 4 -8 1 -6 -7
4 -15 18 -32 24 -22 7 3 -6 -1 -7 -9 -4 -9 3 -16 13 -16 22 0 12 -3 13 -11 5
-7 -7 -22 -8 -38 -4 -28 8 -54 4 -47 -8 7 -11 -55 -12 -69 -1 -9 8 -14 7 -18
-3 -6 -15 -47 -30 -47 -17 0 4 -19 4 -42 -1 -58 -11 -60 -11 -53 4 4 6 -2 3
-12 -8 -13 -15 -28 -20 -55 -19 -23 2 -38 -2 -38 -9 0 -8 -3 -8 -11 0 -11 11
-99 -1 -108 -15 -5 -8 -33 -22 -53 -27 -5 -2 -11 -4 -15 -5 -5 -2 -15 -4 -23
-5 -8 -1 -31 -8 -50 -17 -53 -23 -73 -31 -90 -33 -76 -12 -92 -21 -70 -36 12
-9 12 -10 -3 -5 -11 3 -20 0 -23 -9 -4 -8 -10 -15 -16 -15 -5 0 -7 4 -3 9 3 5
1 12 -4 15 -5 3 -11 -3 -14 -14 -3 -11 -1 -20 4 -20 5 0 9 -7 9 -15 0 -9 -6
-12 -17 -9 -15 5 -15 3 1 -10 11 -9 14 -16 8 -16 -7 0 -31 17 -53 38 -23 20
-45 36 -48 35 -3 -1 -19 9 -36 23 -27 23 -30 23 -37 7 -6 -17 -7 -17 -7 0 -1
14 -6 17 -23 11 -13 -4 -27 -12 -31 -18 -6 -7 -7 -6 -4 4 4 12 -7 16 -52 17
-70 2 -85 5 -105 22 -9 7 -16 11 -16 7 0 -4 -10 0 -23 9 -13 8 -27 12 -32 8
-4 -5 -5 -2 -1 5 5 8 -3 16 -23 23 -17 6 -28 15 -25 20 3 5 0 9 -5 9 -6 0 -11
-6 -11 -12 0 -9 -4 -8 -10 2 -9 13 -11 13 -21 0 -9 -13 -10 -12 -5 2 4 13 -2
20 -19 24 -14 3 -25 12 -25 20 0 7 -6 11 -14 8 -8 -3 -17 0 -21 5 -3 6 -11 9
-16 6 -5 -4 -9 2 -10 12 0 12 -2 14 -6 4 -4 -9 -12 -5 -29 15 -13 17 -23 23
-24 15 0 -9 -6 -7 -19 8 -11 12 -21 22 -23 21 -2 -1 -16 4 -33 10 -16 6 -37 9
-47 7 -10 -3 -15 -1 -12 5 3 5 0 9 -7 7 -27 -3 -40 1 -34 11 5 8 -30 15 -57
11 -13 -2 -77 46 -70 53 3 4 -1 4 -10 1 -8 -3 -22 1 -31 9 -9 9 -22 16 -29 16
-10 0 -9 -3 2 -10 9 -6 10 -10 3 -10 -7 0 -16 7 -21 16 -6 11 -17 15 -31 11
-11 -3 -24 -1 -27 4 -3 5 -10 6 -16 3 -7 -4 -8 -2 -4 4 4 8 -3 16 -19 22 -14
5 -23 15 -20 20 3 6 -2 13 -12 17 -10 3 -22 12 -26 20 -4 7 -17 13 -27 13 -10
0 -21 4 -24 9 -3 4 -19 11 -36 15 -17 3 -42 17 -55 30 -14 15 -32 23 -40 20
-8 -4 -15 -1 -15 7 0 7 -3 9 -7 6 -3 -4 -11 -3 -17 2 -20 15 -76 22 -76 8 0
-9 -3 -8 -9 1 -4 7 -14 14 -22 15 -8 2 -18 5 -24 9 -5 3 -25 9 -43 13 -18 3
-30 10 -27 15 5 9 -43 20 -86 20 -22 0 -32 7 -42 28 -6 15 -17 30 -24 35 -7 4
-10 14 -7 22 3 8 -5 25 -19 38 -14 13 -27 30 -29 38 -2 7 -7 17 -11 20 -7 5
-13 32 -16 72 -1 5 -7 5 -13 1 -9 -5 -9 -2 1 9 9 12 10 17 2 17 -7 0 -9 5 -6
10 3 6 1 10 -4 10 -6 0 -11 6 -11 14 0 7 -6 19 -13 25 -8 6 -20 29 -27 51 -7
22 -17 40 -22 40 -5 0 -6 5 -2 11 4 7 -1 7 -16 -1 -20 -11 -21 -10 -11 9 6 11
7 22 2 25 -12 8 -51 83 -51 99 0 7 -11 24 -25 39 -14 15 -25 38 -25 51 0 14
-7 30 -15 37 -11 9 -12 17 -4 31 7 15 6 21 -6 25 -8 3 -15 17 -15 30 0 14 -7
27 -15 30 -8 3 -17 14 -20 25 -4 10 -13 19 -20 19 -8 0 -12 8 -10 20 2 11 -3
33 -11 50 -9 16 -14 41 -12 54 1 13 -3 30 -10 39 -7 8 -12 21 -10 29 1 7 -6
25 -16 41 -11 16 -16 37 -14 52 3 14 1 25 -5 25 -6 0 -8 3 -4 6 3 3 1 18 -5
33 -5 14 -12 37 -15 51 -2 13 -8 27 -12 30 -5 3 -12 20 -16 38 -3 18 -13 32
-21 32 -8 0 -14 10 -14 25 0 14 -4 25 -10 25 -5 0 -10 7 -10 16 0 10 -6 14
-14 11 -10 -4 -13 -1 -9 9 3 7 0 14 -6 14 -6 0 -8 6 -5 13 6 16 -30 60 -40 50
-4 -4 -4 0 -1 9 5 12 0 17 -17 20 -13 2 -27 13 -33 26 -5 12 -15 22 -21 22 -7
0 -14 10 -17 21 -4 14 -11 20 -21 16 -9 -4 -15 -1 -13 6 1 7 -3 11 -9 10 -6
-1 -11 5 -12 13 -1 8 -3 21 -4 29 -1 8 -4 15 -8 15 -3 0 -21 15 -40 33 -22 20
-43 31 -55 29 -19 -4 -19 -3 -1 10 24 19 14 58 -14 53 -13 -3 -20 2 -20 12 0
9 -3 13 -7 10 -3 -4 -21 19 -38 51 -23 40 -38 56 -50 54 -9 -2 -24 3 -33 11
-10 8 -27 18 -39 21 -13 4 -23 13 -23 21 0 8 -7 11 -20 8 -11 -3 -20 -1 -20 5
0 14 -76 43 -95 36 -8 -3 -15 -1 -15 5 0 7 -21 11 -52 11 -68 0 -160 21 -154
36 3 7 -5 9 -21 6 -18 -3 -24 -1 -19 7 9 14 -7 14 -21 0 -7 -7 -19 -8 -30 -4
-30 13 -43 14 -43 2 0 -7 -5 -4 -11 6 -8 14 -18 17 -40 12 -20 -5 -38 -1 -54
9 -23 15 -25 15 -25 -1 -1 -14 -4 -12 -15 7 -8 14 -14 20 -15 15 0 -6 -20 -10
-44 -10 -24 0 -42 3 -40 6 5 9 -61 27 -90 24 -14 -2 -26 0 -26 4 0 4 -16 7
-35 8 -19 1 -33 -2 -30 -6 2 -4 -3 -8 -11 -8 -9 0 -13 6 -9 16 5 15 4 15 -7 0
-15 -19 -39 -14 -31 7 3 8 2 14 -1 14 -3 0 -6 -5 -6 -11z m20 -314 c7 -8 16
-13 20 -10 4 3 10 -2 14 -10 3 -8 15 -15 26 -15 12 0 18 5 15 10 -3 6 -1 10 5
10 7 0 9 -8 5 -22 -6 -18 -4 -20 11 -13 28 11 82 6 123 -12 20 -9 39 -15 44
-15 4 1 7 -2 7 -7 0 -6 10 -7 23 -5 32 8 40 8 66 0 18 -6 22 -5 17 5 -4 8 -2
7 6 -2 8 -10 27 -15 51 -14 25 1 37 -2 37 -12 0 -17 47 -17 53 0 4 7 6 6 6 -4
1 -9 8 -20 17 -23 10 -4 13 -2 8 6 -5 8 -2 9 10 5 10 -4 29 -10 42 -13 13 -3
24 -10 24 -15 0 -5 6 -8 13 -7 6 2 11 -2 10 -9 -2 -7 4 -10 12 -6 9 3 26 -3
38 -13 18 -16 20 -16 8 -1 -11 14 -11 17 0 17 8 0 20 -9 27 -21 8 -12 9 -18 3
-14 -6 3 -11 1 -11 -4 0 -6 7 -11 15 -11 8 0 15 -4 15 -10 0 -5 7 -6 17 -3 11
4 14 3 9 -5 -5 -8 -1 -10 10 -5 13 5 16 2 12 -13 -4 -15 0 -20 14 -21 15 -2
17 1 8 12 -9 11 -7 12 10 8 24 -6 60 -49 60 -72 0 -9 9 -24 19 -33 13 -11 18
-24 14 -37 -4 -17 -2 -20 11 -15 9 3 14 9 12 13 -3 4 5 8 17 8 12 1 17 -1 11
-5 -13 -8 -26 -55 -14 -47 5 3 15 -1 23 -9 8 -8 18 -12 22 -8 5 4 6 -1 2 -10
-3 -10 0 -19 10 -22 10 -4 14 -15 10 -31 -5 -28 10 -45 19 -21 5 13 8 13 20 1
20 -20 17 -30 -3 -14 -16 13 -17 12 -5 -3 8 -10 17 -17 20 -16 23 2 32 -5 32
-27 0 -14 4 -25 8 -25 4 0 13 -13 19 -30 8 -21 8 -30 0 -30 -5 0 -7 -3 -4 -6
4 -4 14 -1 24 7 14 11 15 11 9 0 -5 -7 -4 -16 1 -20 20 -14 54 -72 47 -82 -3
-6 -1 -15 6 -19 7 -5 14 -19 16 -32 1 -12 3 -24 4 -25 2 -2 3 -6 4 -10 9 -38
19 -54 26 -43 5 8 8 4 7 -13 -1 -14 -5 -23 -9 -20 -5 2 -8 -1 -8 -6 0 -6 5
-11 10 -11 6 0 10 -5 10 -11 0 -5 -4 -7 -10 -4 -5 3 -10 1 -10 -4 0 -10 22
-16 43 -12 5 1 6 -3 2 -9 -3 -6 -10 -8 -14 -6 -4 3 -8 -1 -8 -8 0 -8 5 -12 12
-10 15 6 31 -28 46 -96 17 -79 30 -111 42 -103 6 4 8 0 4 -10 -3 -10 -2 -17 3
-17 6 0 10 -9 10 -21 0 -13 -4 -18 -12 -13 -7 5 -3 -5 10 -20 12 -16 22 -34
22 -41 0 -7 7 -16 16 -19 9 -4 14 -13 10 -21 -3 -8 -1 -15 4 -15 15 0 80 -72
74 -81 -3 -5 0 -9 7 -9 7 0 9 -3 6 -7 -4 -3 -1 -13 6 -21 10 -13 9 -15 -3 -8
-9 4 -8 1 3 -7 9 -8 17 -22 17 -31 0 -9 4 -16 9 -16 10 0 22 -33 26 -74 2 -16
9 -32 16 -37 8 -5 10 -9 6 -9 -5 0 1 -14 13 -31 12 -16 19 -33 16 -37 -4 -3 4
-12 16 -19 15 -8 18 -12 8 -13 -13 0 -13 -1 0 -10 8 -5 16 -14 16 -20 3 -23 5
-24 14 -10 8 12 10 11 10 -5 0 -12 6 -27 13 -34 9 -10 9 -15 1 -18 -7 -2 -10
-12 -7 -23 3 -11 11 -16 20 -13 9 4 14 0 13 -8 -4 -29 0 -50 10 -44 5 3 7 0 4
-8 -3 -8 2 -21 10 -30 8 -8 13 -17 10 -20 -4 -3 0 -23 7 -44 7 -21 14 -40 14
-43 11 -43 19 -60 30 -60 19 0 49 -37 33 -42 -7 -3 2 -11 20 -19 18 -7 32 -21
33 -29 0 -10 2 -11 6 -3 3 10 10 10 24 2 11 -6 31 -9 44 -7 15 2 30 -5 40 -17
9 -11 14 -15 11 -8 -8 15 10 27 19 13 3 -5 13 -10 22 -10 13 0 13 3 2 18 -7 9
-9 14 -5 10 5 -4 26 2 47 14 26 14 36 26 32 37 -4 9 -3 13 2 9 4 -4 15 -2 23
5 13 10 14 9 10 -3 -3 -11 7 -18 41 -26 27 -6 45 -15 43 -22 -2 -10 3 -10 16
-3 20 11 62 4 62 -10 0 -5 7 -6 15 -3 19 8 82 -32 90 -56 4 -11 12 -20 20 -20
7 0 24 -15 36 -32 13 -18 27 -36 33 -40 6 -4 4 -13 -5 -25 -13 -16 -13 -17 4
-4 15 12 21 9 18 -11 0 -4 6 -5 14 -2 8 4 15 1 15 -4 0 -6 10 -9 21 -7 21 4
21 4 3 -18 -13 -14 -13 -17 -3 -9 18 13 69 13 69 -1 0 -4 4 -6 10 -2 5 3 19 0
30 -7 17 -11 22 -11 31 2 9 13 10 12 5 -2 -3 -10 -1 -20 5 -24 6 -4 6 -12 -3
-22 -10 -14 -10 -15 0 -6 7 6 24 9 38 6 21 -4 23 -7 12 -20 -10 -12 -6 -11 15
2 17 12 27 14 27 7 0 -7 5 -9 10 -6 6 3 10 2 10 -4 0 -10 8 -11 64 -12 18 -1
24 -4 17 -9 -9 -5 -4 -9 13 -12 15 -3 26 -1 27 6 0 6 4 2 9 -9 5 -12 9 -14 9
-6 1 10 7 7 20 -7 10 -12 24 -22 30 -22 7 0 9 -4 6 -10 -3 -5 0 -7 8 -5 7 3
24 -3 37 -15 25 -22 35 -26 25 -10 -3 6 -1 10 4 10 15 0 14 -23 -1 -39 -7 -8
-1 -6 13 3 22 14 28 14 38 3 6 -8 9 -16 6 -19 -3 -3 2 -11 10 -18 9 -7 15 -9
14 -4 -4 25 3 26 17 4 10 -16 13 -18 9 -6 -6 19 -5 19 13 3 26 -24 39 -21 17
3 -24 27 -16 25 25 -5 18 -13 37 -22 41 -19 5 3 9 0 9 -5 0 -6 3 -10 8 -10 22
4 42 -2 39 -13 -1 -6 16 -20 38 -32 22 -12 43 -25 46 -30 4 -4 16 -3 27 3 29
16 39 14 16 -4 -18 -13 -18 -14 5 -8 16 4 22 2 18 -4 -5 -7 1 -9 14 -6 11 3
23 12 26 19 3 8 9 14 14 14 4 0 6 -7 3 -15 -4 -8 -1 -15 5 -15 6 0 11 7 11 15
0 8 4 15 10 15 5 0 7 -6 4 -14 -4 -11 7 -13 53 -11 33 2 64 -2 72 -9 12 -9 13
-8 6 3 -6 11 -3 13 13 9 13 -4 29 0 40 10 12 11 13 14 2 8 -8 -4 1 6 20 23 21
19 40 29 50 25 8 -4 21 -7 28 -7 9 0 9 -4 2 -11 -15 -15 -12 -22 9 -22 11 0
17 4 15 8 -3 4 2 8 12 8 11 0 15 -6 11 -19 -5 -20 10 -31 41 -31 12 1 10 5 -8
14 l-25 14 28 -1 c23 -2 28 -6 24 -24 -2 -12 2 -24 9 -27 8 -3 11 0 7 9 -4 12
2 14 27 11 22 -2 30 0 26 9 -3 9 2 11 15 8 12 -4 26 2 34 13 13 17 14 17 9 2
-3 -10 -1 -18 5 -18 6 0 11 5 11 10 0 6 7 10 15 10 8 0 15 4 15 9 0 5 14 12
30 16 17 4 30 11 30 16 0 5 5 9 11 9 5 0 7 -4 4 -10 -3 -5 -1 -10 4 -10 6 0
11 9 11 21 0 11 5 17 10 14 6 -4 7 -12 4 -18 -5 -9 -4 -9 6 0 7 6 19 9 28 6 9
-4 13 -2 9 4 -4 6 0 13 8 17 8 3 15 2 15 -3 0 -4 7 -8 15 -8 8 0 12 4 9 9 -3
4 7 8 23 9 46 1 77 9 85 22 4 6 20 13 35 13 15 1 43 4 62 7 22 4 38 1 48 -9
13 -12 12 -14 -3 -14 -10 0 -14 -3 -11 -6 4 -4 -3 -15 -15 -25 -17 -16 -18
-19 -5 -19 10 0 17 -4 17 -10 0 -5 -4 -10 -10 -10 -5 0 -7 -7 -4 -15 4 -11 2
-13 -9 -10 -8 4 -17 -1 -21 -10 -3 -9 -2 -13 4 -10 6 3 10 -1 10 -10 0 -9 -4
-13 -10 -10 -5 3 -10 0 -10 -8 0 -8 -9 -22 -20 -32 -11 -10 -20 -24 -20 -32 0
-8 -4 -11 -10 -8 -5 3 -10 1 -10 -5 0 -7 -6 -10 -14 -7 -9 4 -12 0 -9 -12 5
-19 -19 -31 -63 -31 -11 0 -29 -9 -39 -20 -10 -11 -21 -17 -25 -15 -4 3 -10
-2 -14 -10 -3 -8 -16 -15 -30 -15 -14 0 -27 -4 -31 -10 -3 -5 -13 -6 -22 -3
-10 4 -14 2 -10 -4 5 -7 0 -9 -13 -6 -11 3 -20 1 -20 -5 0 -6 -11 -9 -25 -7
-14 1 -25 -1 -25 -4 0 -3 -11 -11 -25 -18 -19 -8 -24 -8 -19 0 3 7 -1 4 -9 -5
-8 -10 -17 -15 -20 -12 -3 3 -12 -3 -19 -15 -13 -22 -42 -28 -53 -11 -4 6 -11
5 -19 -3 -12 -10 -11 -13 2 -18 14 -5 14 -6 -1 -12 -9 -3 -17 -2 -17 3 0 6 -7
10 -16 10 -10 0 -14 -6 -11 -15 5 -12 2 -12 -18 -3 -13 6 -22 15 -18 21 3 6 1
7 -5 3 -6 -4 -8 -14 -5 -23 4 -11 3 -14 -5 -9 -7 4 -12 2 -12 -6 -1 -10 -4 -9
-13 2 -17 21 -64 18 -80 -4 -13 -18 -14 -18 -20 4 -6 23 -7 23 -26 6 -11 -10
-24 -15 -30 -12 -6 4 -19 -2 -30 -13 -17 -17 -22 -17 -39 -5 -11 7 -23 10 -27
6 -3 -4 -16 -8 -28 -8 -52 -3 -58 -4 -53 -12 2 -4 0 -14 -5 -22 -8 -12 -9 -11
-7 5 2 12 -4 21 -14 23 -11 2 -18 -3 -18 -11 0 -9 -13 -18 -30 -22 -16 -4 -30
-11 -30 -16 0 -5 -14 -9 -31 -9 -17 0 -40 -5 -52 -11 -16 -9 -22 -9 -25 -1 -3
9 -9 9 -23 1 -11 -5 -24 -7 -29 -4 -6 3 -10 1 -10 -6 0 -8 -4 -8 -15 1 -13 10
-19 9 -36 -6 -17 -16 -19 -16 -13 -1 7 19 1 21 -26 7 -15 -8 -21 -6 -29 7 -9
16 -10 16 -11 1 0 -21 -40 -12 -40 9 0 8 -5 11 -10 8 -6 -4 -8 -10 -5 -15 3
-5 -6 -7 -20 -4 -14 2 -25 0 -25 -6 0 -6 4 -9 9 -6 5 3 12 -1 15 -10 6 -15 4
-15 -18 0 -31 20 -36 20 -36 2 0 -11 -10 -13 -42 -9 -24 4 -45 9 -48 13 -3 5
-30 4 -60 -1 -30 -5 -62 -6 -72 -3 -9 2 -19 0 -23 -6 -3 -5 -1 -10 6 -10 7 0
9 -3 5 -7 -4 -4 -16 3 -26 17 -11 14 -20 20 -20 14 0 -18 -40 -25 -40 -7 0 10
-5 13 -17 8 -10 -4 -27 -10 -38 -13 -11 -3 -22 -9 -25 -13 -3 -5 -18 -2 -33 6
-14 7 -26 11 -26 7 3 -21 -3 -23 -21 -7 -11 10 -20 13 -20 7 0 -7 -7 -12 -16
-12 -9 0 -12 5 -8 12 4 7 3 8 -5 4 -6 -4 -35 -10 -64 -13 -47 -5 -51 -4 -38
11 11 14 11 16 -3 16 -9 0 -16 -5 -16 -10 0 -6 -15 -8 -34 -6 -19 2 -37 2 -40
-2 -14 -13 -42 -10 -60 6 -11 9 -16 12 -13 5 4 -6 3 -14 -3 -18 -5 -3 -10 -1
-10 5 0 7 -10 5 -29 -4 -29 -15 -73 -18 -65 -4 3 4 0 8 -5 8 -6 0 -11 -5 -11
-11 0 -5 -5 -7 -12 -3 -7 5 -25 7 -40 6 -16 -1 -28 3 -28 9 0 8 -4 9 -13 0 -8
-6 -16 -8 -20 -5 -8 8 -57 12 -57 5 0 -4 -9 -7 -20 -8 -12 -1 -18 3 -14 9 4 6
-2 6 -15 -1 -15 -8 -21 -9 -21 -1 0 6 -4 9 -9 5 -5 -3 -12 -1 -16 5 -3 6 -17
8 -30 6 -13 -3 -26 1 -28 7 -3 9 -13 9 -40 0 -20 -6 -37 -7 -37 -3 0 5 10 11
23 13 17 3 15 5 -8 6 -17 0 -47 -8 -68 -19 -41 -22 -51 -25 -42 -10 10 16 -12
12 -29 -6 -9 -8 -16 -10 -16 -4 0 7 -6 8 -19 0 -27 -14 -31 -13 -24 8 6 15 4
15 -15 -2 -12 -11 -25 -16 -29 -13 -3 4 -1 7 5 7 7 0 12 4 12 9 0 17 -50 18
-96 3 -39 -13 -50 -13 -67 -2 -12 7 -22 9 -24 3 -2 -5 -17 -8 -33 -5 -16 2
-38 1 -47 -3 -34 -15 -41 -13 -36 9 3 15 2 17 -5 8 -5 -7 -20 -14 -33 -16 -13
-1 -32 -6 -43 -11 -12 -5 -21 -3 -27 6 -7 12 -9 12 -9 -1 0 -9 -3 -11 -8 -4
-6 8 -67 13 -67 4 0 -1 -13 -4 -30 -6 -16 -3 -34 -9 -39 -14 -5 -5 -17 -5 -29
2 -16 8 -19 8 -14 -5 4 -10 0 -16 -11 -16 -21 -1 -58 -2 -74 -1 -30 1 -72 -9
-78 -20 -5 -8 -10 -9 -14 -2 -4 6 -14 8 -23 5 -10 -4 -14 -2 -10 4 11 18 -16
21 -40 6 -19 -13 -23 -12 -42 8 l-21 23 0 -22 c0 -19 -3 -20 -24 -12 -17 6
-26 5 -29 -3 -3 -9 -9 -9 -26 0 -25 16 -34 16 -26 3 3 -6 -1 -10 -9 -10 -9 0
-16 4 -16 9 0 10 -45 5 -63 -6 -6 -4 -8 3 -5 15 8 29 -5 28 -17 0 -6 -14 -17
-22 -28 -20 -9 2 -17 -1 -17 -6 0 -12 -33 -10 -41 2 -4 4 -16 3 -27 -3 -31
-16 -45 -14 -37 7 4 12 0 10 -16 -6 -17 -19 -23 -21 -30 -10 -7 10 -9 9 -9 -5
0 -10 -4 -16 -9 -12 -16 9 -103 16 -97 7 2 -4 -3 -8 -12 -9 -9 0 -33 -4 -52
-8 -26 -5 -31 -4 -20 4 11 8 11 11 2 11 -7 0 -15 -6 -18 -13 -5 -14 -38 -16
-50 -4 -4 4 -22 7 -40 7 -18 0 -35 4 -38 9 -4 5 -21 8 -39 7 -17 -1 -40 2 -49
6 -9 4 -19 4 -22 -1 -3 -5 -24 -4 -48 1 -24 5 -54 9 -67 9 -13 -1 -31 5 -39
11 -9 7 -13 8 -9 2 4 -7 -12 -9 -51 -6 -31 3 -59 9 -60 13 -2 5 -9 6 -15 2
-17 -11 -117 -9 -117 2 0 6 -4 4 -9 -4 -8 -12 -12 -12 -24 -2 -10 8 -17 9 -22
1 -8 -14 -45 -13 -45 1 0 8 -5 7 -16 -2 -13 -10 -17 -10 -25 2 -6 9 -9 10 -9
2 0 -10 -21 -11 -82 -7 -46 3 -90 5 -98 5 -39 -1 -109 1 -145 4 -22 2 -50 4
-62 4 -15 1 -23 7 -23 19 0 14 -2 14 -9 3 -13 -20 -41 -23 -41 -4 0 19 -32 13
-38 -7 -5 -13 -3 -13 11 -1 10 7 17 9 17 3 0 -20 -29 -20 -42 0 -13 19 -15 20
-31 4 -16 -16 -17 -16 -17 2 0 25 -7 31 -31 25 -18 -5 -19 -6 -2 -20 16 -13
15 -13 -7 -2 -14 7 -34 12 -45 11 -20 -3 -20 -3 0 13 19 15 19 16 -5 13 -14
-2 -27 -6 -30 -9 -3 -3 -18 -9 -35 -12 -16 -3 -24 -4 -17 -1 6 3 12 12 12 20
0 12 -4 12 -25 -2 -14 -9 -25 -12 -25 -8 0 5 -5 2 -10 -6 -8 -13 -10 -13 -10
2 0 9 -4 20 -10 23 -6 3 -7 -1 -4 -9 4 -11 0 -16 -15 -16 -12 0 -21 6 -21 13
0 8 -3 9 -8 1 -8 -12 -42 -15 -42 -4 0 4 -17 7 -37 8 -20 1 -39 5 -42 10 -3 5
-13 9 -21 9 -8 0 -23 4 -32 8 -11 4 -18 3 -18 -4 0 -8 -11 -6 -30 6 -27 16
-32 16 -40 3 -9 -13 -10 -13 -11 0 0 10 -3 8 -9 -5 -7 -17 -9 -17 -9 -2 -1 19
-9 21 -30 8 -10 -6 -25 -4 -42 5 -36 18 -39 18 -39 -3 0 -15 -2 -14 -15 3 -8
10 -15 14 -15 8 0 -6 -7 -11 -15 -11 -8 0 -11 5 -8 10 4 6 -5 8 -21 5 -18 -4
-26 -1 -26 8 0 16 -43 29 -65 20 -9 -3 -14 -2 -11 3 9 15 -40 40 -64 34 -19
-5 -22 -3 -16 12 5 15 4 16 -9 5 -9 -7 -15 -8 -15 -2 0 5 -10 8 -22 4 -13 -3
-19 -1 -15 5 5 7 0 9 -13 6 -13 -3 -22 1 -26 11 -5 13 -9 14 -20 5 -11 -9 -14
-9 -14 0 0 15 -122 71 -161 74 -16 1 -29 6 -29 10 0 5 -4 5 -10 2 -5 -3 -10
-2 -10 4 0 6 -8 7 -17 4 -12 -5 -15 -2 -10 10 3 9 2 19 -4 23 -13 8 8 34 28
34 8 0 11 5 7 13 -4 6 -4 9 1 5 4 -4 13 -3 20 2 6 5 32 12 56 15 75 10 95 14
124 29 16 8 32 13 37 10 4 -3 8 0 8 6 0 6 11 8 24 6 14 -2 52 2 86 10 33 7 64
13 68 13 20 -3 32 2 29 14 -1 7 7 11 21 10 13 -2 21 1 17 7 -3 6 0 10 9 10 8
0 16 4 18 8 2 5 16 12 32 16 25 6 28 4 24 -12 -3 -11 0 -19 7 -19 10 0 11 7 4
25 -5 14 -8 26 -7 27 2 1 18 10 36 19 17 9 32 21 32 27 0 7 11 9 25 7 13 -3
23 -2 21 1 -6 10 19 28 36 25 9 -1 15 5 14 15 -1 9 8 17 22 19 12 2 22 7 22
12 0 4 8 10 18 13 9 4 34 13 55 20 20 8 37 12 37 9 0 -3 6 2 13 12 7 9 24 17
37 18 14 1 31 6 38 11 7 6 15 7 18 4 4 -3 13 0 21 8 18 18 43 19 43 3 0 -9 3
-8 9 2 6 8 7 18 4 24 -3 5 -2 6 4 3 5 -3 22 1 37 9 16 7 35 14 43 14 8 0 11 5
8 13 -4 6 1 3 9 -7 16 -19 16 -19 16 3 0 12 4 20 9 17 4 -3 25 3 46 14 21 11
41 17 45 15 5 -3 11 6 14 20 6 23 18 29 54 28 6 -1 12 5 12 13 0 8 8 14 18 15
30 1 66 7 92 13 14 4 36 9 49 12 14 3 29 8 35 12 13 8 32 12 71 17 17 2 30 4
30 5 0 1 18 3 40 5 51 3 106 21 118 37 7 10 10 10 14 1 2 -7 9 -13 14 -13 6 0
8 4 4 9 -6 10 32 26 53 23 6 -2 12 2 12 8 0 5 6 10 13 10 22 0 73 71 60 83
-12 13 29 19 51 9 17 -7 27 -7 35 1 7 7 11 8 11 0 0 -6 11 -8 25 -5 23 4 25 1
25 -30 0 -22 7 -42 19 -52 11 -10 22 -28 25 -41 4 -14 15 -29 26 -35 11 -6 18
-15 15 -21 -4 -5 1 -9 9 -9 8 0 18 -5 22 -12 4 -6 3 -8 -4 -4 -6 3 -3 -8 6
-26 15 -30 17 -31 20 -10 2 12 9 22 16 22 22 0 26 -13 8 -26 -11 -9 -13 -13
-4 -14 7 0 10 -4 7 -10 -4 -7 2 -7 19 -1 18 8 26 6 30 -5 6 -15 27 -15 38 1 4
6 8 0 8 -12 0 -23 20 -33 20 -10 0 9 2 9 9 -1 4 -8 11 -13 15 -12 14 4 76 -11
76 -20 0 -4 22 -7 50 -6 27 2 47 -1 44 -5 -3 -5 7 -4 22 1 21 8 25 8 21 -4 -6
-15 24 -34 63 -40 14 -2 24 -8 23 -14 -1 -5 7 -12 17 -15 13 -3 18 -1 13 5 -4
7 -1 8 8 2 15 -9 25 -11 76 -17 18 -2 31 -1 28 3 -2 3 21 6 51 6 29 0 54 -4
54 -9 0 -5 7 -7 15 -3 8 3 15 1 15 -5 0 -6 9 -8 21 -4 14 5 25 2 30 -6 7 -11
9 -10 9 4 0 20 11 22 28 5 7 -7 12 -8 12 -4 0 5 7 3 15 -4 12 -10 15 -10 15 1
0 8 8 5 23 -8 20 -19 32 -21 63 -12 7 2 12 0 12 -5 0 -16 24 -23 56 -16 38 8
98 6 116 -5 9 -5 11 -4 6 3 -4 7 -3 12 2 12 6 0 12 -7 16 -15 3 -8 11 -15 18
-15 9 0 9 3 -2 10 -10 6 -1 9 30 8 25 -1 50 -6 57 -11 8 -6 18 -3 29 8 11 11
20 13 27 6 6 -6 14 -5 22 3 8 7 34 12 64 11 30 -1 51 3 51 9 0 7 3 8 8 1 10
-14 36 -12 56 4 13 11 16 11 16 0 0 -11 3 -11 11 1 9 12 12 13 16 1 4 -10 7
-10 13 -2 7 12 34 17 60 10 8 -2 14 2 12 9 -1 6 1 11 5 10 5 0 15 1 23 5 39
15 60 14 69 -1 7 -12 13 -13 23 -5 14 11 16 11 100 17 31 2 60 6 65 9 4 2 17
3 28 1 23 -3 47 14 38 29 -3 5 -1 7 5 3 6 -3 14 -1 18 5 4 8 9 7 15 -2 6 -10
9 -5 9 14 0 16 4 26 10 22 6 -3 10 -1 10 5 0 6 6 8 13 4 6 -4 4 2 -6 13 -13
15 -15 23 -7 28 7 4 9 18 6 31 -5 19 -3 22 11 18 13 -4 15 -3 5 4 -7 5 -14 17
-16 26 -1 10 -9 22 -17 27 -12 7 -12 9 1 9 8 1 0 9 -19 19 -21 11 -30 21 -22
25 6 4 11 2 11 -5 0 -7 3 -9 6 -6 9 9 -16 38 -27 31 -5 -3 -9 0 -9 5 0 6 -7
11 -15 11 -8 0 -15 -4 -15 -10 0 -5 -7 -10 -16 -10 -8 0 -12 5 -9 10 3 6 -1
10 -9 10 -9 0 -16 -4 -16 -8 0 -5 -10 -8 -22 -6 -13 1 -30 3 -38 3 -13 1 -13
2 0 12 11 8 9 9 -10 4 -14 -4 -29 -8 -35 -9 -5 0 -16 -7 -23 -13 -16 -15 -29
-16 -37 -3 -7 11 -44 -21 -38 -32 2 -4 -3 -5 -11 -2 -9 3 -16 11 -16 18 0 6
-6 4 -13 -5 -16 -20 -77 -33 -77 -16 0 8 -4 7 -10 -3 -8 -12 -10 -12 -10 5 0
12 -3 16 -8 9 -4 -6 -18 -17 -32 -24 -24 -13 -24 -12 -10 5 13 16 9 15 -22 -4
-27 -16 -38 -19 -38 -9 0 10 -3 9 -10 -2 -8 -13 -11 -13 -19 -1 -6 9 -20 12
-47 7 -22 -3 -52 -7 -69 -9 -16 -2 -40 -9 -53 -16 -18 -10 -23 -9 -28 3 -3 9
-12 12 -22 8 -15 -5 -16 -4 -2 14 14 17 13 18 -1 7 -9 -7 -20 -9 -24 -5 -5 4
-5 -1 -2 -11 5 -14 3 -16 -12 -8 -10 6 -22 7 -26 3 -3 -4 -5 -2 -3 3 1 6 -1
10 -7 10 -5 0 -9 -4 -7 -9 2 -5 -4 -6 -11 -3 -8 3 -19 1 -25 -5 -6 -6 -16 -6
-28 0 -11 5 -26 7 -34 4 -13 -5 -13 -3 -1 11 7 10 9 17 3 17 -5 0 -15 -7 -22
-15 -7 -8 -17 -15 -22 -15 -6 0 -4 8 3 17 10 12 10 15 1 9 -14 -8 -45 18 -34
29 4 5 1 5 -6 1 -7 -4 -19 -4 -25 1 -7 4 -5 1 5 -9 24 -22 23 -31 -4 -17 -18
10 -20 9 -15 -4 4 -11 2 -14 -8 -11 -8 3 -12 11 -9 18 3 7 -5 12 -18 13 -18 2
-20 0 -8 -7 13 -8 13 -10 -1 -10 -9 0 -20 7 -23 16 -5 13 -9 14 -21 4 -13 -10
-15 -9 -15 9 0 18 -3 20 -17 12 -31 -16 -83 -21 -83 -7 0 9 -19 12 -60 11 -48
-1 -60 2 -61 14 0 9 -2 12 -5 6 -4 -10 -123 -10 -133 0 -3 4 1 10 8 14 9 6 10
11 2 15 -6 4 -11 2 -11 -3 0 -19 -29 -12 -40 9 -6 11 -19 20 -30 20 -10 0 -20
5 -22 12 -5 14 -67 13 -81 -1 -14 -14 -27 -14 -27 0 0 5 4 7 10 4 6 -3 7 1 4
10 -6 14 -8 14 -19 -1 -8 -12 -14 -14 -19 -6 -4 7 -22 12 -39 12 -21 0 -28 3
-19 9 10 6 9 10 -7 14 -12 3 -19 1 -15 -4 3 -5 -2 -6 -10 -3 -9 3 -13 10 -10
15 3 5 -2 9 -10 9 -17 0 -17 1 -21 40 -1 14 -6 33 -10 42 -5 12 -2 20 8 24 9
3 13 12 10 20 -3 9 1 14 11 14 9 0 19 8 23 18 3 9 20 31 38 47 17 17 37 42 45
57 12 25 43 45 62 40 4 -1 5 5 1 14 -3 8 -2 14 3 13 22 -4 32 2 37 22 3 12 10
18 17 14 17 -10 41 15 35 36 -5 13 -1 19 10 19 22 0 45 24 45 49 0 11 5 23 12
27 8 5 9 1 4 -12 -5 -14 0 -12 19 9 14 15 30 27 35 27 5 0 7 7 4 15 -5 11 -2
13 10 9 11 -4 16 0 16 12 1 24 18 47 48 63 12 7 20 17 16 23 -5 8 1 9 17 5 23
-6 24 -6 4 10 -14 10 -16 17 -7 20 6 3 12 14 12 25 0 12 3 18 6 15 9 -9 44 32
44 50 0 8 8 13 18 11 11 -2 16 3 14 14 -1 9 2 19 7 22 5 3 7 16 3 28 -3 11 -1
19 4 16 5 -4 8 18 8 48 -1 39 2 54 12 54 8 0 11 -6 7 -17 -3 -10 -2 -14 2 -10
5 4 8 23 7 41 -2 21 3 36 11 39 9 3 13 19 12 42 -1 25 4 40 15 48 10 6 15 18
12 29 -2 10 0 18 6 18 5 0 12 17 15 38 12 81 16 96 37 124 11 15 17 27 13 26
-4 -2 -8 2 -8 7 0 6 4 9 8 7 5 -1 6 2 2 7 -3 6 -13 8 -23 5 -13 -5 -14 -4 -3
4 8 6 12 19 8 31 -3 12 -1 24 4 27 5 3 9 17 9 31 0 16 5 23 13 20 8 -3 12 7
12 34 0 22 -3 39 -6 39 -4 0 -9 9 -12 19 -3 13 1 21 12 24 10 3 8 5 -7 6 -13
0 -20 6 -17 11 3 6 1 10 -6 10 -7 0 -5 6 6 13 14 11 15 16 5 22 -7 4 -16 2
-22 -6 -7 -10 -8 -8 -5 9 3 12 2 20 -3 17 -4 -2 -24 -7 -44 -9 -30 -4 -36 -2
-32 10 8 20 0 17 -24 -8 -13 -14 -20 -17 -20 -8 0 9 -4 8 -14 -5 -13 -18 -14
-18 -24 2 -6 11 -9 23 -6 25 2 3 -7 16 -21 29 -13 13 -25 28 -25 32 0 4 -9 17
-20 29 -10 12 -17 25 -14 30 3 4 0 8 -6 8 -21 0 -49 44 -38 58 7 8 7 12 -1 12
-6 0 -11 7 -11 15 0 8 -7 15 -15 15 -8 0 -15 6 -15 13 0 7 -9 19 -19 26 -11 8
-17 20 -14 28 3 8 2 13 -3 11 -17 -4 -52 13 -58 28 -3 8 -10 12 -16 9 -6 -4
-16 8 -24 26 -9 21 -15 27 -19 18 -3 -8 -6 -2 -6 14 -1 18 -6 27 -17 27 -14 0
-15 2 -3 17 8 9 13 24 11 35 -4 22 11 24 28 3z m944 -340 c3 -8 1 -15 -4 -15
-6 0 -10 7 -10 15 0 8 2 15 4 15 2 0 6 -7 10 -15z m699 -510 c-3 -9 -8 -14
-10 -11 -3 3 -2 9 2 15 9 16 15 13 8 -4z m-253 -357 c0 -19 -2 -20 -10 -8 -13
19 -13 30 0 30 6 0 10 -10 10 -22z m-960 -1127 c0 -6 -4 -13 -10 -16 -5 -3
-10 1 -10 9 0 9 5 16 10 16 6 0 10 -4 10 -9z m34 -37 c3 -8 2 -12 -4 -9 -6 3
-10 10 -10 16 0 14 7 11 14 -7z m2826 -109 c0 -8 -4 -15 -10 -15 -5 0 -7 7 -4
15 4 8 8 15 10 15 2 0 4 -7 4 -15z m1700 -10 c0 -9 -6 -12 -16 -8 -13 5 -13 7
-2 14 17 11 18 11 18 -6z m-1056 -327 c-3 -4 -9 -8 -15 -8 -5 0 -9 4 -9 8 0 5
7 9 15 9 8 0 12 -4 9 -9z m-214 -68 c0 -5 -5 -10 -11 -10 -5 0 -7 5 -4 10 3 6
8 10 11 10 2 0 4 -4 4 -10z m-5620 -460 c0 -5 -2 -10 -4 -10 -3 0 -8 5 -11 10
-3 6 -1 10 4 10 6 0 11 -4 11 -10z m5950 -279 c0 12 2 12 10 -1 7 -11 5 -19
-7 -27 -9 -7 -12 -13 -7 -13 13 0 5 -70 -12 -94 -16 -23 -8 -46 14 -40 15 5
14 3 -1 -9 -11 -9 -14 -18 -8 -21 7 -5 7 -15 1 -32 -5 -13 -9 -28 -9 -32 1 -4
0 -9 -1 -12 -1 -3 -3 -32 -5 -65 -2 -33 -4 -60 -5 -60 -2 0 -8 -24 -19 -73 -5
-24 -14 -49 -20 -55 -8 -8 -7 -14 1 -25 7 -8 8 -16 2 -20 -10 -8 -10 -10 -18
-73 -12 -94 -15 -109 -21 -119 -4 -6 -8 -24 -10 -40 -2 -16 -11 -42 -19 -59
-17 -33 -21 -55 -8 -47 5 3 9 -1 9 -8 0 -21 -45 -10 -67 16 -23 27 -25 38 -7
39 6 0 -1 5 -16 11 -15 5 -26 15 -24 21 2 6 -5 20 -14 31 -10 10 -15 24 -12
30 3 6 3 8 -2 4 -12 -11 -35 11 -35 33 0 10 -9 21 -20 24 -11 3 -25 15 -31 26
-5 11 -14 17 -18 14 -5 -2 -19 4 -32 16 -12 11 -29 17 -36 15 -7 -3 -13 1 -13
10 0 9 -5 12 -12 8 -7 -4 -9 -3 -5 1 12 14 38 15 30 2 -3 -7 5 -2 19 11 13 12
28 20 31 17 4 -3 5 -2 2 1 -8 12 16 45 28 38 7 -4 9 -3 4 1 -4 5 0 16 9 26 10
11 14 27 11 39 -4 16 -2 19 7 11 9 -8 15 4 25 50 6 33 16 57 21 54 5 -3 12 11
16 32 4 21 11 47 17 58 11 20 15 58 20 161 3 66 22 97 61 100 12 0 34 4 49 8
15 3 27 2 27 -2 0 -5 18 -4 40 2 30 7 39 14 35 26 -3 9 1 8 10 -4 11 -14 15
-16 15 -5z m-50 5 c0 -3 -4 -8 -10 -11 -5 -3 -10 -1 -10 4 0 6 5 11 10 11 6 0
10 -2 10 -4z m-760 -118 c0 -18 -2 -20 -9 -8 -6 8 -7 18 -5 22 9 14 14 9 14
-14z m-2858 -20 c-8 -8 -9 -4 -5 13 4 13 8 18 11 10 2 -7 -1 -18 -6 -23z
m2788 16 c0 -8 -4 -12 -10 -9 -5 3 -10 10 -10 16 0 5 5 9 10 9 6 0 10 -7 10
-16z m1535 -254 c3 -5 1 -10 -4 -10 -6 0 -11 5 -11 10 0 6 2 10 4 10 3 0 8 -4
11 -10z m-1060 -210 c-3 -5 -12 -10 -18 -10 -7 0 -6 4 3 10 19 12 23 12 15 0z
m1405 -91 c0 -5 -7 -9 -15 -9 -9 0 -12 6 -9 15 6 15 24 11 24 -6z m-6942 -219
c-7 -11 -14 -17 -17 -15 -2 3 1 11 7 18 7 8 8 18 4 22 -4 5 -1 5 5 1 10 -5 10
-11 1 -26z m5802 -80 c0 -5 -2 -10 -4 -10 -3 0 -8 5 -11 10 -3 6 -1 10 4 10 6
0 11 -4 11 -10z m1075 -720 c3 -6 -1 -7 -9 -4 -18 7 -21 14 -7 14 6 0 13 -4
16 -10z m-928 -435 c0 -8 -4 -12 -9 -9 -5 3 -6 10 -3 15 9 13 12 11 12 -6z
m686 -380 c-3 -9 -8 -14 -10 -11 -3 3 -2 9 2 15 9 16 15 13 8 -4z m-459 -57
c-3 -4 -9 -8 -15 -8 -5 0 -9 4 -9 8 0 5 7 9 15 9 8 0 12 -4 9 -9z m-564 -1848
c0 -5 -7 -10 -16 -10 -8 0 -12 5 -9 10 3 6 10 10 16 10 5 0 9 -4 9 -10z m335
-239 c3 -5 2 -12 -3 -15 -5 -3 -9 1 -9 9 0 17 3 19 12 6z m2 -223 c-3 -8 -6
-5 -6 6 -1 11 2 17 5 13 3 -3 4 -12 1 -19z"/>
<path d="M3724 8457 c-4 -6 -4 -9 1 -5 4 4 14 3 22 -4 7 -6 15 -9 18 -7 2 3
-4 10 -15 17 -15 9 -21 9 -26 -1z"/>
<path d="M4193 8367 c0 -8 6 -14 14 -14 9 0 10 4 2 14 -6 7 -12 13 -14 13 -1
0 -2 -6 -2 -13z"/>
<path d="M3844 8323 c2 -9 8 -18 15 -19 6 -1 7 0 1 3 -5 2 -8 9 -5 13 3 5 1
11 -4 14 -5 4 -8 -2 -7 -11z"/>
<path d="M4547 8250 c3 -11 9 -20 15 -20 5 0 4 9 -2 20 -6 11 -12 20 -14 20
-2 0 -2 -9 1 -20z"/>
<path d="M3896 8217 c3 -10 9 -15 12 -12 3 3 0 11 -7 18 -10 9 -11 8 -5 -6z"/>
<path d="M3980 8200 c0 -5 5 -10 11 -10 5 0 7 5 4 10 -3 6 -8 10 -11 10 -2 0
-4 -4 -4 -10z"/>
<path d="M3950 8185 c-11 -13 -10 -14 4 -9 9 3 16 10 16 15 0 13 -6 11 -20 -6z"/>
<path d="M4009 8163 c-13 -17 -13 -17 6 -3 11 8 22 16 24 17 2 2 0 3 -6 3 -6
0 -17 -8 -24 -17z"/>
<path d="M4100 8119 c0 -5 5 -7 10 -4 6 3 10 8 10 11 0 2 -4 4 -10 4 -5 0 -10
-5 -10 -11z"/>
<path d="M4186 8063 c-6 -14 -5 -15 5 -6 7 7 10 15 7 18 -3 3 -9 -2 -12 -12z"/>
<path d="M4105 8060 c-3 -5 -2 -10 4 -10 5 0 13 5 16 10 3 6 2 10 -4 10 -5 0
-13 -4 -16 -10z"/>
<path d="M4295 7980 c3 -5 8 -10 11 -10 2 0 4 5 4 10 0 6 -5 10 -11 10 -5 0
-7 -4 -4 -10z"/>
<path d="M4235 7910 c-3 -5 -1 -10 4 -10 6 0 11 5 11 10 0 6 -2 10 -4 10 -3 0
-8 -4 -11 -10z"/>
<path d="M4345 7780 c-3 -6 1 -7 9 -4 18 7 21 14 7 14 -6 0 -13 -4 -16 -10z"/>
<path d="M4223 7725 c0 -8 4 -12 9 -9 5 3 6 10 3 15 -9 13 -12 11 -12 -6z"/>
<path d="M4270 7700 c0 -5 9 -14 20 -20 11 -6 20 -9 20 -8 0 2 -9 11 -20 21
-11 9 -20 13 -20 7z"/>
<path d="M4182 7635 c-11 -12 -10 -15 3 -15 8 0 15 7 15 15 0 18 -2 18 -18 0z"/>
<path d="M4319 7623 c-13 -16 -12 -17 4 -4 9 7 17 15 17 17 0 8 -8 3 -21 -13z"/>
<path d="M4380 7595 c-7 -9 -8 -15 -2 -15 5 0 12 7 16 15 3 8 4 15 2 15 -2 0
-9 -7 -16 -15z"/>
<path d="M4255 7590 c-16 -7 -17 -9 -3 -9 9 -1 20 4 23 9 7 11 7 11 -20 0z"/>
<path d="M4286 7568 c3 -5 10 -6 15 -3 13 9 11 12 -6 12 -8 0 -12 -4 -9 -9z"/>
<path d="M4356 7538 c3 -5 10 -6 15 -3 13 9 11 12 -6 12 -8 0 -12 -4 -9 -9z"/>
<path d="M4216 7492 c-3 -5 1 -9 9 -9 8 0 12 4 9 9 -3 4 -7 8 -9 8 -2 0 -6 -4
-9 -8z"/>
<path d="M4115 7470 c-16 -7 -17 -9 -3 -9 9 -1 20 4 23 9 7 11 7 11 -20 0z"/>
<path d="M4150 7466 c0 -2 7 -7 16 -10 8 -3 12 -2 9 4 -6 10 -25 14 -25 6z"/>
<path d="M4446 7415 c-3 -8 -1 -15 4 -15 6 0 10 7 10 15 0 8 -2 15 -4 15 -2 0
-6 -7 -10 -15z"/>
<path d="M4240 7410 c0 -5 5 -10 11 -10 5 0 7 5 4 10 -3 6 -8 10 -11 10 -2 0
-4 -4 -4 -10z"/>
<path d="M4290 7399 c0 -5 5 -7 10 -4 6 3 10 8 10 11 0 2 -4 4 -10 4 -5 0 -10
-5 -10 -11z"/>
<path d="M4116 7381 c-4 -5 4 -7 16 -3 17 4 20 2 15 -11 -4 -11 -2 -14 7 -11
8 3 17 1 21 -5 3 -6 12 -11 18 -11 7 0 4 5 -6 11 -9 6 -14 15 -11 21 4 6 2 8
-4 4 -6 -3 -13 -2 -17 4 -8 12 -32 13 -39 1z"/>
<path d="M4418 7383 c6 -2 18 -2 25 0 6 3 1 5 -13 5 -14 0 -19 -2 -12 -5z"/>
<path d="M4454 7363 c3 -6 -1 -13 -9 -15 -13 -2 -13 -5 3 -14 16 -10 18 -9 17
7 -1 10 -5 22 -10 26 -4 5 -5 3 -1 -4z"/>
<path d="M4115 7340 c-4 -6 -11 -8 -16 -5 -15 10 -10 0 10 -17 17 -15 19 -14
19 8 0 26 -3 29 -13 14z"/>
<path d="M4405 7331 c3 -5 0 -11 -7 -13 -7 -3 -5 -7 6 -11 9 -4 15 -3 11 2 -3
5 0 11 7 13 7 3 5 7 -6 11 -9 4 -15 3 -11 -2z"/>
<path d="M4143 7311 c0 -11 5 -18 9 -15 4 3 5 11 1 19 -7 21 -12 19 -10 -4z"/>
<path d="M4311 7311 c-8 -5 -9 -11 -3 -15 5 -3 12 1 16 9 6 17 6 18 -13 6z"/>
<path d="M4209 7268 c-8 -27 -5 -36 9 -30 10 4 12 7 4 10 -7 2 -10 8 -6 13 3
5 3 9 0 9 -3 0 -6 -1 -7 -2z"/>
<path d="M4435 7260 c-3 -5 -1 -10 4 -10 6 0 11 5 11 10 0 6 -2 10 -4 10 -3 0
-8 -4 -11 -10z"/>
<path d="M4137 7249 c7 -7 15 -10 18 -7 3 3 -2 9 -12 12 -14 6 -15 5 -6 -5z"/>
<path d="M4349 7233 c-13 -16 -12 -17 4 -4 16 13 21 21 13 21 -2 0 -10 -8 -17
-17z"/>
<path d="M4166 7207 c3 -10 9 -15 12 -12 3 3 0 11 -7 18 -10 9 -11 8 -5 -6z"/>
<path d="M4400 7210 c0 -5 5 -10 11 -10 5 0 7 5 4 10 -3 6 -8 10 -11 10 -2 0
-4 -4 -4 -10z"/>
<path d="M4277 7195 c3 -8 9 -12 14 -9 12 7 11 11 -5 17 -10 4 -13 1 -9 -8z"/>
<path d="M4446 7164 c-5 -14 -4 -15 9 -4 17 14 19 20 6 20 -5 0 -12 -7 -15
-16z"/>
<path d="M4050 7165 c0 -2 6 -8 13 -14 10 -8 14 -7 14 2 0 8 -6 14 -14 14 -7
0 -13 -1 -13 -2z"/>
<path d="M4240 7130 c-9 -6 -10 -10 -3 -10 6 0 15 5 18 10 8 12 4 12 -15 0z"/>
<path d="M4285 7130 c-3 -5 -1 -10 4 -10 6 0 11 5 11 10 0 6 -2 10 -4 10 -3 0
-8 -4 -11 -10z"/>
<path d="M4178 7097 c14 -6 26 -7 32 -1 5 5 -4 9 -23 10 -30 1 -30 1 -9 -9z"/>
<path d="M3985 7089 c-4 -6 -5 -12 -2 -15 2 -3 7 2 10 11 7 17 1 20 -8 4z"/>
<path d="M4012 7081 c-10 -6 -10 -10 2 -20 12 -10 15 -9 13 8 -1 12 -1 21 -2
21 0 0 -6 -4 -13 -9z"/>
<path d="M4060 7070 c0 -5 5 -10 11 -10 5 0 7 5 4 10 -3 6 -8 10 -11 10 -2 0
-4 -4 -4 -10z"/>
<path d="M4093 7040 c-28 -11 -29 -16 -3 -16 11 0 22 6 24 13 3 7 4 13 3 12
-1 0 -12 -4 -24 -9z"/>
<path d="M3992 6998 c6 -18 22 -20 41 -6 15 12 14 13 -14 15 -19 2 -29 -2 -27
-9z"/>
<path d="M3970 6980 c0 -6 7 -13 15 -16 8 -4 12 -11 8 -17 -3 -6 -1 -7 5 -3
15 9 15 9 -8 29 -11 9 -20 12 -20 7z"/>
<path d="M4275 6981 c-3 -5 -2 -12 3 -15 5 -3 9 1 9 9 0 17 -3 19 -12 6z"/>
<path d="M4237 6959 c4 -13 8 -18 11 -10 2 7 -1 18 -6 23 -8 8 -9 4 -5 -13z"/>
<path d="M4020 6936 c0 -2 8 -10 18 -17 15 -13 16 -12 3 4 -13 16 -21 21 -21
13z"/>
<path d="M4340 6938 c0 -2 9 -11 20 -21 11 -9 20 -13 20 -7 0 5 -9 14 -20 20
-11 6 -20 9 -20 8z"/>
<path d="M4067 6919 c7 -7 15 -10 18 -7 3 3 -2 9 -12 12 -14 6 -15 5 -6 -5z"/>
<path d="M3960 6848 c0 -4 4 -8 9 -8 6 0 12 4 15 8 3 5 -1 9 -9 9 -8 0 -15 -4
-15 -9z"/>
<path d="M4014 6820 c0 -9 5 -17 11 -17 6 0 11 8 11 17 0 9 -5 17 -11 17 -6 0
-11 -8 -11 -17z"/>
<path d="M4321 6823 c7 -12 15 -20 18 -17 3 2 -3 12 -13 22 -17 16 -18 16 -5
-5z"/>
<path d="M3891 6817 c2 -1 13 -9 24 -17 19 -14 19 -14 6 3 -7 9 -18 17 -24 17
-6 0 -8 -1 -6 -3z"/>
<path d="M4267 6809 c7 -7 15 -10 18 -7 3 3 -2 9 -12 12 -14 6 -15 5 -6 -5z"/>
<path d="M3950 6790 c-6 -11 -8 -20 -6 -20 3 0 10 9 16 20 6 11 8 20 6 20 -3
0 -10 -9 -16 -20z"/>
<path d="M3755 6791 c-3 -5 -2 -12 3 -15 5 -3 9 1 9 9 0 17 -3 19 -12 6z"/>
<path d="M4426 6778 c5 -8 1 -9 -12 -4 -14 5 -16 4 -7 -4 7 -8 17 -9 28 -3 16
9 16 10 1 16 -12 5 -15 3 -10 -5z"/>
<path d="M4181 6764 c0 -11 3 -14 6 -6 3 7 2 16 -1 19 -3 4 -6 -2 -5 -13z"/>
<path d="M4063 6755 c0 -8 4 -12 9 -9 5 3 6 10 3 15 -9 13 -12 11 -12 -6z"/>
<path d="M3926 6717 c3 -10 9 -15 12 -12 3 3 0 11 -7 18 -10 9 -11 8 -5 -6z"/>
<path d="M3895 6710 c-3 -5 -1 -18 5 -27 9 -15 10 -14 4 6 -4 17 -3 21 6 16 9
-5 11 -4 6 3 -9 15 -13 15 -21 2z"/>
<path d="M4215 6709 c-4 -6 -5 -12 -2 -15 2 -3 7 2 10 11 7 17 1 20 -8 4z"/>
<path d="M3970 6695 c0 -8 4 -15 10 -15 5 0 7 7 4 15 -4 8 -8 15 -10 15 -2 0
-4 -7 -4 -15z"/>
<path d="M4140 6679 c0 -5 5 -7 10 -4 6 3 10 8 10 11 0 2 -4 4 -10 4 -5 0 -10
-5 -10 -11z"/>
<path d="M3883 6649 c-2 -23 3 -25 10 -4 4 8 3 16 -1 19 -4 3 -9 -4 -9 -15z"/>
<path d="M4490 6660 c0 -5 9 -14 20 -20 11 -6 20 -9 20 -8 0 2 -9 11 -20 21
-11 9 -20 13 -20 7z"/>
<path d="M4070 6650 c0 -4 7 -7 15 -6 23 3 26 12 5 13 -11 1 -20 -2 -20 -7z"/>
<path d="M5400 6643 c0 -15 -2 -16 -10 -3 -5 8 -10 11 -10 5 0 -5 4 -15 8 -22
6 -9 11 -7 20 7 7 12 8 21 2 25 -6 3 -10 -2 -10 -12z"/>
<path d="M3795 6640 c-3 -5 -1 -10 4 -10 6 0 11 5 11 10 0 6 -2 10 -4 10 -3 0
-8 -4 -11 -10z"/>
<path d="M4025 6630 c-3 -5 -1 -10 4 -10 6 0 11 5 11 10 0 6 -2 10 -4 10 -3 0
-8 -4 -11 -10z"/>
<path d="M4276 6625 c4 -8 11 -15 16 -15 6 0 5 6 -2 15 -7 8 -14 15 -16 15 -2
0 -1 -7 2 -15z"/>
<path d="M5330 6630 c-13 -8 -12 -10 3 -10 9 0 17 5 17 10 0 12 -1 12 -20 0z"/>
<path d="M4616 6622 c-3 -4 4 -9 15 -9 23 -2 25 3 4 10 -8 4 -16 3 -19 -1z"/>
<path d="M5256 6613 c-6 -14 -5 -15 5 -6 7 7 10 15 7 18 -3 3 -9 -2 -12 -12z"/>
<path d="M3600 6610 c-9 -6 -10 -10 -3 -10 6 0 15 5 18 10 8 12 4 12 -15 0z"/>
<path d="M4120 6599 c0 -5 5 -7 10 -4 6 3 10 8 10 11 0 2 -4 4 -10 4 -5 0 -10
-5 -10 -11z"/>
<path d="M4221 6598 c-1 -21 15 -32 25 -17 4 7 3 9 -4 5 -6 -3 -13 2 -15 11
-4 16 -5 16 -6 1z"/>
<path d="M3760 6591 c0 -6 4 -13 10 -16 6 -3 7 1 4 9 -7 18 -14 21 -14 7z"/>
<path d="M4366 6592 c-3 -5 1 -9 9 -9 8 0 12 4 9 9 -3 4 -7 8 -9 8 -2 0 -6 -4
-9 -8z"/>
<path d="M4456 6592 c-3 -5 1 -9 9 -9 8 0 12 4 9 9 -3 4 -7 8 -9 8 -2 0 -6 -4
-9 -8z"/>
<path d="M4607 6571 c-4 -17 -3 -21 5 -13 5 5 8 16 6 23 -3 8 -7 3 -11 -10z"/>
<path d="M5265 6570 c4 -7 2 -15 -5 -20 -9 -5 -8 -8 2 -13 17 -6 22 29 6 39
-7 5 -8 2 -3 -6z"/>
<path d="M3576 6548 c3 -5 10 -6 15 -3 13 9 11 12 -6 12 -8 0 -12 -4 -9 -9z"/>
<path d="M4966 6543 c-4 -11 -1 -11 14 -3 24 13 25 17 5 17 -8 0 -16 -6 -19
-14z"/>
<path d="M4459 6533 c-13 -16 -12 -17 4 -4 9 7 17 15 17 17 0 8 -8 3 -21 -13z"/>
<path d="M5379 6533 c-13 -17 -13 -17 6 -3 11 8 22 16 24 17 2 2 0 3 -6 3 -6
0 -17 -8 -24 -17z"/>
<path d="M5156 6527 c3 -10 9 -15 12 -12 3 3 0 11 -7 18 -10 9 -11 8 -5 -6z"/>
<path d="M3540 6526 c0 -2 7 -7 16 -10 8 -3 12 -2 9 4 -6 10 -25 14 -25 6z"/>
<path d="M3902 6502 c-11 -25 -11 -25 4 -10 9 9 15 21 13 27 -2 6 -10 -2 -17
-17z"/>
<path d="M4607 6513 c3 -7 6 -13 8 -13 2 0 5 6 8 13 3 8 -1 14 -8 14 -7 0 -11
-6 -8 -14z"/>
<path d="M5007 6509 c7 -7 15 -10 18 -7 3 3 -2 9 -12 12 -14 6 -15 5 -6 -5z"/>
<path d="M4198 6503 c7 -3 16 -2 19 1 4 3 -2 6 -13 5 -11 0 -14 -3 -6 -6z"/>
<path d="M4290 6499 c0 -5 5 -7 10 -4 6 3 10 8 10 11 0 2 -4 4 -10 4 -5 0 -10
-5 -10 -11z"/>
<path d="M4370 6500 c-9 -6 -10 -10 -3 -10 6 0 15 5 18 10 8 12 4 12 -15 0z"/>
<path d="M4493 6495 c0 -8 4 -12 9 -9 5 3 6 10 3 15 -9 13 -12 11 -12 -6z"/>
<path d="M4630 6501 c0 -6 4 -13 10 -16 6 -3 7 1 4 9 -7 18 -14 21 -14 7z"/>
<path d="M4795 6490 c-11 -5 -14 -9 -6 -9 8 -1 11 -8 8 -21 -3 -11 -1 -18 4
-14 5 3 9 14 9 24 0 10 6 21 13 23 6 3 8 5 2 6 -5 0 -19 -4 -30 -9z"/>
<path d="M5350 6490 c0 -5 7 -7 15 -4 8 4 15 8 15 10 0 2 -7 4 -15 4 -8 0 -15
-4 -15 -10z"/>
<path d="M3619 6473 c-13 -16 -12 -17 4 -4 16 13 21 21 13 21 -2 0 -10 -8 -17
-17z"/>
<path d="M3788 6483 c7 -3 16 -2 19 1 4 3 -2 6 -13 5 -11 0 -14 -3 -6 -6z"/>
<path d="M5128 6483 c7 -3 16 -2 19 1 4 3 -2 6 -13 5 -11 0 -14 -3 -6 -6z"/>
<path d="M3848 6473 c7 -3 16 -2 19 1 4 3 -2 6 -13 5 -11 0 -14 -3 -6 -6z"/>
<path d="M4047 6469 c7 -7 15 -10 18 -7 3 3 -2 9 -12 12 -14 6 -15 5 -6 -5z"/>
<path d="M4330 6469 c0 -5 5 -7 10 -4 6 3 10 8 10 11 0 2 -4 4 -10 4 -5 0 -10
-5 -10 -11z"/>
<path d="M4220 6466 c0 -2 7 -7 16 -10 8 -3 12 -2 9 4 -6 10 -25 14 -25 6z"/>
<path d="M4590 6460 c0 -5 -5 -9 -11 -7 -6 1 -13 -4 -14 -11 -2 -7 -1 -8 2 -2
3 7 10 4 19 -7 13 -17 14 -17 8 0 -3 9 -1 17 5 17 6 0 11 5 11 10 0 6 -4 10
-10 10 -5 0 -10 -4 -10 -10z"/>
<path d="M5162 6454 c-7 -8 -8 -14 -3 -14 10 0 25 19 20 25 -2 1 -10 -3 -17
-11z"/>
<path d="M3754 6448 c-4 -7 -4 -10 1 -6 4 4 15 2 24 -5 14 -11 14 -10 2 6 -16
20 -18 21 -27 5z"/>
<path d="M4500 6449 c0 -5 5 -7 10 -4 6 3 10 8 10 11 0 2 -4 4 -10 4 -5 0 -10
-5 -10 -11z"/>
<path d="M5411 6444 c0 -11 3 -14 6 -6 3 7 2 16 -1 19 -3 4 -6 -2 -5 -13z"/>
<path d="M4470 6429 c0 -5 5 -7 10 -4 6 3 10 8 10 11 0 2 -4 4 -10 4 -5 0 -10
-5 -10 -11z"/>
<path d="M4757 6426 c-4 -10 -1 -13 8 -9 8 3 12 9 9 14 -7 12 -11 11 -17 -5z"/>
<path d="M4260 6421 c0 -6 4 -12 8 -15 5 -3 9 1 9 9 0 8 -4 15 -9 15 -4 0 -8
-4 -8 -9z"/>
<path d="M4981 6414 c0 -11 3 -14 6 -6 3 7 2 16 -1 19 -3 4 -6 -2 -5 -13z"/>
<path d="M5105 6420 c-3 -6 1 -7 9 -4 18 7 21 14 7 14 -6 0 -13 -4 -16 -10z"/>
<path d="M3785 6409 c-11 -16 -1 -19 13 -3 7 8 8 14 3 14 -5 0 -13 -5 -16 -11z"/>
<path d="M4111 6404 c0 -11 3 -14 6 -6 3 7 2 16 -1 19 -3 4 -6 -2 -5 -13z"/>
<path d="M4290 6416 c0 -2 7 -7 16 -10 8 -3 12 -2 9 4 -6 10 -25 14 -25 6z"/>
<path d="M4366 6408 c3 -5 10 -6 15 -3 13 9 11 12 -6 12 -8 0 -12 -4 -9 -9z"/>
<path d="M5391 6397 c-13 -21 -12 -21 5 -5 10 10 16 20 13 22 -3 3 -11 -5 -18
-17z"/>
<path d="M4388 6392 c-16 -10 -28 -21 -28 -25 0 -5 13 1 29 12 15 11 32 17 36
13 5 -4 5 -1 1 6 -4 6 -8 12 -9 11 -1 0 -14 -8 -29 -17z"/>
<path d="M4508 6403 c7 -3 16 -2 19 1 4 3 -2 6 -13 5 -11 0 -14 -3 -6 -6z"/>
<path d="M5130 6406 c0 -2 7 -7 16 -10 8 -3 12 -2 9 4 -6 10 -25 14 -25 6z"/>
<path d="M3665 6390 c-3 -5 -1 -10 4 -10 6 0 11 5 11 10 0 6 -2 10 -4 10 -3 0
-8 -4 -11 -10z"/>
<path d="M3737 6389 c7 -7 15 -10 18 -7 3 3 -2 9 -12 12 -14 6 -15 5 -6 -5z"/>
<path d="M3994 6379 c-4 -7 -3 -9 4 -5 5 3 13 0 15 -6 4 -9 6 -10 6 -1 1 17
-16 25 -25 12z"/>
<path d="M4508 6383 c7 -3 16 -2 19 1 4 3 -2 6 -13 5 -11 0 -14 -3 -6 -6z"/>
<path d="M5440 6379 c0 -5 5 -7 10 -4 6 3 10 8 10 11 0 2 -4 4 -10 4 -5 0 -10
-5 -10 -11z"/>
<path d="M4220 6367 c0 -9 4 -18 9 -21 5 -4 8 1 7 9 -3 21 -16 31 -16 12z"/>
<path d="M4438 6362 c9 -10 19 -17 21 -16 6 5 -20 34 -30 34 -5 0 -1 -8 9 -18z"/>
<path d="M5335 6340 c-3 -5 -2 -10 4 -10 5 0 13 5 16 10 3 6 2 10 -4 10 -5 0
-13 -4 -16 -10z"/>
<path d="M4263 6325 c0 -8 4 -12 9 -9 5 3 6 10 3 15 -9 13 -12 11 -12 -6z"/>
<path d="M4848 6328 c5 -5 16 -8 23 -6 8 3 3 7 -10 11 -17 4 -21 3 -13 -5z"/>
<path d="M4955 6329 c-4 -6 -5 -12 -2 -15 2 -3 7 2 10 11 7 17 1 20 -8 4z"/>
<path d="M5506 6327 c3 -10 9 -15 12 -12 3 3 0 11 -7 18 -10 9 -11 8 -5 -6z"/>
<path d="M3786 6317 c3 -10 9 -15 12 -12 3 3 0 11 -7 18 -10 9 -11 8 -5 -6z"/>
<path d="M3980 6320 c-9 -6 -10 -10 -3 -10 6 0 15 5 18 10 8 12 4 12 -15 0z"/>
<path d="M5530 6320 c0 -5 5 -10 10 -10 6 0 10 5 10 10 0 6 -4 10 -10 10 -5 0
-10 -4 -10 -10z"/>
<path d="M4561 6304 c0 -11 3 -14 6 -6 3 7 2 16 -1 19 -3 4 -6 -2 -5 -13z"/>
<path d="M4646 6312 c-3 -5 1 -9 9 -9 8 0 12 4 9 9 -3 4 -7 8 -9 8 -2 0 -6 -4
-9 -8z"/>
<path d="M4780 6310 c-12 -7 -10 -9 7 -7 12 0 19 5 17 9 -6 10 -6 10 -24 -2z"/>
<path d="M5010 6316 c0 -2 7 -7 16 -10 8 -3 12 -2 9 4 -6 10 -25 14 -25 6z"/>
<path d="M4016 6302 c-3 -5 1 -9 9 -9 8 0 12 4 9 9 -3 4 -7 8 -9 8 -2 0 -6 -4
-9 -8z"/>
<path d="M4430 6298 c0 -6 3 -8 7 -5 3 4 13 1 22 -6 14 -11 14 -10 2 6 -15 20
-31 22 -31 5z"/>
<path d="M4727 6299 c7 -7 15 -10 18 -7 3 3 -2 9 -12 12 -14 6 -15 5 -6 -5z"/>
<path d="M5319 6293 c-13 -16 -12 -17 4 -4 9 7 17 15 17 17 0 8 -8 3 -21 -13z"/>
<path d="M3030 6291 c0 -6 4 -13 10 -16 6 -3 7 1 4 9 -7 18 -14 21 -14 7z"/>
<path d="M3908 6293 c7 -3 16 -2 19 1 4 3 -2 6 -13 5 -11 0 -14 -3 -6 -6z"/>
<path d="M4535 6293 c3 -3 0 -11 -5 -18 -7 -8 -5 -12 4 -12 14 0 16 22 3 32
-4 3 -5 2 -2 -2z"/>
<path d="M3989 6277 c6 -8 7 -18 3 -22 -4 -5 -1 -5 6 -1 10 6 10 11 1 22 -6 8
-14 14 -16 14 -3 0 0 -6 6 -13z"/>
<path d="M3820 6270 c-9 -6 -10 -10 -3 -10 6 0 15 5 18 10 8 12 4 12 -15 0z"/>
<path d="M4145 6270 c-3 -6 1 -7 9 -4 18 7 21 14 7 14 -6 0 -13 -4 -16 -10z"/>
<path d="M4260 6269 c0 -5 5 -7 10 -4 6 3 10 8 10 11 0 2 -4 4 -10 4 -5 0 -10
-5 -10 -11z"/>
<path d="M4686 6267 c3 -10 9 -15 12 -12 3 3 0 11 -7 18 -10 9 -11 8 -5 -6z"/>
<path d="M5426 6264 c-8 -22 -4 -25 11 -9 7 8 9 16 4 19 -5 3 -12 -1 -15 -10z"/>
<path d="M4416 6258 c3 -5 10 -6 15 -3 13 9 11 12 -6 12 -8 0 -12 -4 -9 -9z"/>
<path d="M4815 6260 c-3 -5 -1 -10 4 -10 6 0 11 5 11 10 0 6 -2 10 -4 10 -3 0
-8 -4 -11 -10z"/>
<path d="M4050 6239 c0 -5 5 -7 10 -4 6 3 10 8 10 11 0 2 -4 4 -10 4 -5 0 -10
-5 -10 -11z"/>
<path d="M4260 6236 c7 -7 14 -6 21 1 9 9 7 12 -9 10 -14 -1 -18 -5 -12 -11z"/>
<path d="M4605 6241 c-3 -5 -2 -12 3 -15 5 -3 9 1 9 9 0 17 -3 19 -12 6z"/>
<path d="M5390 6243 c5 -2 8 -9 4 -14 -3 -5 0 -9 6 -9 15 0 7 23 -8 26 -7 1
-8 0 -2 -3z"/>
<path d="M4516 6223 c-6 -14 -5 -15 5 -6 7 7 10 15 7 18 -3 3 -9 -2 -12 -12z"/>
<path d="M4846 6222 c5 -4 12 -11 15 -15 3 -5 9 -2 12 5 3 9 -3 14 -15 15 -11
1 -16 -1 -12 -5z"/>
<path d="M4930 6210 c-8 -5 -10 -10 -5 -10 6 0 17 5 25 10 8 5 11 10 5 10 -5
0 -17 -5 -25 -10z"/>
<path d="M5418 6203 c6 -2 18 -2 25 0 6 3 1 5 -13 5 -14 0 -19 -2 -12 -5z"/>
<path d="M4420 6190 c0 -5 -8 -7 -17 -3 -15 5 -16 3 -5 -8 10 -11 15 -10 29 4
11 11 13 17 5 17 -7 0 -12 -4 -12 -10z"/>
<path d="M5395 6050 c-3 -5 -1 -10 4 -10 6 0 11 5 11 10 0 6 -2 10 -4 10 -3 0
-8 -4 -11 -10z"/>
<path d="M6192 5993 c-10 -4 -9 -8 5 -19 10 -7 23 -13 28 -13 6 0 2 4 -8 10
-9 6 -15 14 -12 20 7 10 6 10 -13 2z"/>
<path d="M6170 5959 c0 -5 5 -7 10 -4 6 3 10 8 10 11 0 2 -4 4 -10 4 -5 0 -10
-5 -10 -11z"/>
<path d="M6270 5960 c0 -6 7 -10 15 -10 8 0 15 2 15 4 0 2 -7 6 -15 10 -8 3
-15 1 -15 -4z"/>
<path d="M6207 5943 c-3 -5 5 -8 18 -8 13 0 21 3 18 8 -2 4 -10 7 -18 7 -8 0
-16 -3 -18 -7z"/>
<path d="M3065 5930 c-3 -6 1 -7 9 -4 18 7 21 14 7 14 -6 0 -13 -4 -16 -10z"/>
<path d="M6322 5924 c-7 -8 -8 -14 -3 -14 10 0 25 19 20 25 -2 1 -10 -3 -17
-11z"/>
<path d="M5970 5896 c0 -2 7 -9 15 -16 13 -11 14 -10 9 4 -5 14 -24 23 -24 12z"/>
<path d="M6397 5879 c7 -7 15 -10 18 -7 3 3 -2 9 -12 12 -14 6 -15 5 -6 -5z"/>
<path d="M4185 5870 c-3 -5 1 -10 10 -10 9 0 13 5 10 10 -3 6 -8 10 -10 10 -2
0 -7 -4 -10 -10z"/>
<path d="M6150 5871 c0 -6 4 -13 10 -16 6 -3 7 1 4 9 -7 18 -14 21 -14 7z"/>
<path d="M6441 5864 c0 -11 3 -14 6 -6 3 7 2 16 -1 19 -3 4 -6 -2 -5 -13z"/>
<path d="M4059 5843 c-13 -16 -12 -17 4 -4 9 7 17 15 17 17 0 8 -8 3 -21 -13z"/>
<path d="M5990 5850 c0 -6 7 -10 15 -10 8 0 15 2 15 4 0 2 -7 6 -15 10 -8 3
-15 1 -15 -4z"/>
<path d="M5720 5840 c0 -5 5 -10 11 -10 5 0 7 5 4 10 -3 6 -8 10 -11 10 -2 0
-4 -4 -4 -10z"/>
<path d="M6540 5841 c0 -6 4 -13 10 -16 6 -3 7 1 4 9 -7 18 -14 21 -14 7z"/>
<path d="M6790 5841 c0 -6 4 -13 10 -16 6 -3 7 1 4 9 -7 18 -14 21 -14 7z"/>
<path d="M5695 5830 c3 -5 8 -10 11 -10 2 0 4 5 4 10 0 6 -5 10 -11 10 -5 0
-7 -4 -4 -10z"/>
<path d="M6415 5830 c3 -5 8 -10 11 -10 2 0 4 5 4 10 0 6 -5 10 -11 10 -5 0
-7 -4 -4 -10z"/>
<path d="M6736 5828 c3 -5 10 -6 15 -3 13 9 11 12 -6 12 -8 0 -12 -4 -9 -9z"/>
<path d="M6771 5814 c0 -11 3 -14 6 -6 3 7 2 16 -1 19 -3 4 -6 -2 -5 -13z"/>
<path d="M5720 5810 c-9 -6 -10 -10 -3 -10 6 0 15 5 18 10 8 12 4 12 -15 0z"/>
<path d="M6485 5810 c3 -5 8 -10 11 -10 2 0 4 5 4 10 0 6 -5 10 -11 10 -5 0
-7 -4 -4 -10z"/>
<path d="M6188 5803 c7 -3 16 -2 19 1 4 3 -2 6 -13 5 -11 0 -14 -3 -6 -6z"/>
<path d="M6875 5800 c-3 -5 -1 -10 4 -10 6 0 11 5 11 10 0 6 -2 10 -4 10 -3 0
-8 -4 -11 -10z"/>
<path d="M2220 5790 c-9 -6 -10 -10 -3 -10 6 0 15 5 18 10 8 12 4 12 -15 0z"/>
<path d="M6215 5790 c-3 -5 -1 -10 4 -10 6 0 11 5 11 10 0 6 -2 10 -4 10 -3 0
-8 -4 -11 -10z"/>
<path d="M6040 5775 c0 -12 20 -35 30 -35 4 0 7 7 7 15 0 8 -5 11 -10 8 -5 -3
-13 1 -18 8 -5 8 -9 9 -9 4z"/>
<path d="M6503 5767 c-3 -6 -1 -7 5 -3 5 3 12 1 14 -6 3 -8 6 -7 10 3 7 17
-19 22 -29 6z"/>
<path d="M6666 5763 c-6 -14 -5 -15 5 -6 7 7 10 15 7 18 -3 3 -9 -2 -12 -12z"/>
<path d="M4013 5745 c0 -7 6 -11 14 -8 7 3 13 6 13 8 0 2 -6 5 -13 8 -8 3 -14
-1 -14 -8z"/>
<path d="M5884 5746 c-16 -13 -17 -17 -5 -28 12 -11 13 -11 6 0 -4 8 0 19 11
27 11 8 16 15 13 15 -3 0 -14 -6 -25 -14z"/>
<path d="M2043 5731 c0 -11 5 -18 9 -15 4 3 5 11 1 19 -7 21 -12 19 -10 -4z"/>
<path d="M6470 5740 c0 -5 5 -10 11 -10 5 0 7 5 4 10 -3 6 -8 10 -11 10 -2 0
-4 -4 -4 -10z"/>
<path d="M6608 5743 c7 -3 16 -2 19 1 4 3 -2 6 -13 5 -11 0 -14 -3 -6 -6z"/>
<path d="M2101 5724 c0 -11 3 -14 6 -6 3 7 2 16 -1 19 -3 4 -6 -2 -5 -13z"/>
<path d="M6417 5729 c7 -7 15 -10 18 -7 3 3 -2 9 -12 12 -14 6 -15 5 -6 -5z"/>
<path d="M4165 5719 c-4 -6 -5 -12 -2 -15 2 -3 7 2 10 11 7 17 1 20 -8 4z"/>
<path d="M6555 5721 c-6 -11 13 -26 22 -17 4 3 0 6 -8 6 -11 0 -11 2 1 10 9 6
10 10 3 10 -6 0 -14 -4 -18 -9z"/>
<path d="M6625 5710 c3 -5 8 -10 11 -10 2 0 4 5 4 10 0 6 -5 10 -11 10 -5 0
-7 -4 -4 -10z"/>
<path d="M2023 5695 c0 -8 4 -12 9 -9 5 3 6 10 3 15 -9 13 -12 11 -12 -6z"/>
<path d="M2173 5685 c0 -7 6 -11 14 -8 7 3 13 6 13 8 0 2 -6 5 -13 8 -8 3 -14
-1 -14 -8z"/>
<path d="M2250 5690 c0 -5 5 -10 11 -10 5 0 7 5 4 10 -3 6 -8 10 -11 10 -2 0
-4 -4 -4 -10z"/>
<path d="M5976 5683 c-6 -14 -5 -15 5 -6 7 7 10 15 7 18 -3 3 -9 -2 -12 -12z"/>
<path d="M6940 5696 c0 -2 7 -7 16 -10 8 -3 12 -2 9 4 -6 10 -25 14 -25 6z"/>
<path d="M5831 5687 c2 -1 13 -9 24 -17 19 -14 19 -14 6 3 -7 9 -18 17 -24 17
-6 0 -8 -1 -6 -3z"/>
<path d="M5905 5680 c-3 -5 1 -10 10 -10 10 0 13 -5 9 -12 -4 -7 -3 -8 5 -4 9
6 9 11 0 22 -14 17 -16 17 -24 4z"/>
<path d="M6132 5674 c-7 -8 -8 -14 -3 -14 10 0 25 19 20 25 -2 1 -10 -3 -17
-11z"/>
<path d="M6303 5685 c4 -5 -3 -15 -15 -22 -13 -7 -18 -12 -12 -13 5 0 18 6 29
13 15 12 16 15 4 22 -8 5 -10 4 -6 0z"/>
<path d="M1714 5662 c12 -13 17 -12 37 2 13 9 18 16 12 16 -7 0 -15 -4 -18
-10 -3 -5 -11 -10 -16 -10 -6 0 -8 4 -5 8 3 5 -2 9 -10 9 -13 0 -13 -2 0 -15z"/>
<path d="M1956 5671 c-4 -5 3 -7 14 -4 23 6 26 13 6 13 -8 0 -17 -4 -20 -9z"/>
<path d="M5686 5672 c-2 -4 4 -8 14 -8 10 0 16 4 14 8 -3 4 -9 8 -14 8 -5 0
-11 -4 -14 -8z"/>
<path d="M6353 5665 c-3 -9 -3 -19 1 -22 3 -4 6 2 6 11 0 12 5 16 16 12 8 -3
12 -2 9 4 -9 15 -25 12 -32 -5z"/>
<path d="M6665 5669 c-4 -6 -14 -8 -24 -4 -13 5 -14 4 -3 -6 10 -11 15 -10 29
4 10 9 14 17 11 17 -4 0 -10 -5 -13 -11z"/>
<path d="M1674 5659 c-4 -7 -3 -9 4 -5 6 3 15 -2 21 -11 6 -10 11 -13 11 -7 0
20 -27 37 -36 23z"/>
<path d="M2151 5663 c-1 -18 13 -23 29 -11 12 8 12 9 -2 5 -9 -3 -19 -1 -22 6
-3 9 -5 9 -5 0z"/>
<path d="M6166 5643 c-6 -14 -5 -15 5 -6 7 7 10 15 7 18 -3 3 -9 -2 -12 -12z"/>
<path d="M6194 5640 c0 -13 4 -16 10 -10 7 7 7 13 0 20 -6 6 -10 3 -10 -10z"/>
<path d="M6837 5629 c4 -13 8 -18 11 -10 2 7 -1 18 -6 23 -8 8 -9 4 -5 -13z"/>
<path d="M2130 5630 c8 -5 20 -10 25 -10 6 0 3 5 -5 10 -8 5 -19 10 -25 10 -5
0 -3 -5 5 -10z"/>
<path d="M2176 5631 c-3 -5 0 -11 7 -14 8 -3 14 1 14 9 0 16 -13 19 -21 5z"/>
<path d="M6293 5625 c0 -8 4 -15 9 -15 4 0 8 4 8 9 0 6 -4 12 -8 15 -5 3 -9
-1 -9 -9z"/>
<path d="M7045 5630 c-4 -6 -11 -7 -17 -4 -7 4 -8 2 -4 -5 6 -9 11 -9 22 0 14
11 18 19 10 19 -3 0 -8 -5 -11 -10z"/>
<path d="M2367 5619 c7 -7 15 -10 18 -7 3 3 -2 9 -12 12 -14 6 -15 5 -6 -5z"/>
<path d="M6040 5620 c8 -5 20 -10 25 -10 6 0 3 5 -5 10 -8 5 -19 10 -25 10 -5
0 -3 -5 5 -10z"/>
<path d="M6492 5602 c-11 -25 -11 -25 4 -10 9 9 15 21 13 27 -2 6 -10 -2 -17
-17z"/>
<path d="M5910 5611 c0 -6 4 -13 10 -16 6 -3 7 1 4 9 -7 18 -14 21 -14 7z"/>
<path d="M6666 5598 c3 -5 10 -6 15 -3 13 9 11 12 -6 12 -8 0 -12 -4 -9 -9z"/>
<path d="M2061 5584 c0 -11 3 -14 6 -6 3 7 2 16 -1 19 -3 4 -6 -2 -5 -13z"/>
<path d="M2336 5585 c-9 -26 -7 -32 5 -12 6 10 9 21 6 23 -2 3 -7 -2 -11 -11z"/>
<path d="M2611 5591 c-8 -6 -9 -11 -3 -15 6 -3 14 -1 17 5 9 14 2 20 -14 10z"/>
<path d="M2959 5583 c-13 -16 -12 -17 4 -4 9 7 17 15 17 17 0 8 -8 3 -21 -13z"/>
<path d="M3005 5590 c-4 -6 -3 -10 2 -9 20 3 25 -2 14 -15 -8 -10 -9 -16 -1
-21 5 -3 10 -5 11 -3 6 27 5 39 -6 48 -9 8 -15 8 -20 0z"/>
<path d="M6165 5590 c4 -7 2 -15 -5 -20 -9 -5 -8 -8 2 -13 17 -6 22 29 6 39
-7 5 -8 2 -3 -6z"/>
<path d="M6275 5590 c-3 -6 1 -7 9 -4 18 7 21 14 7 14 -6 0 -13 -4 -16 -10z"/>
<path d="M1700 5581 c0 -6 4 -13 10 -16 6 -3 7 1 4 9 -7 18 -14 21 -14 7z"/>
<path d="M3070 5586 c0 -2 7 -7 16 -10 8 -3 12 -2 9 4 -6 10 -25 14 -25 6z"/>
<path d="M6000 5579 c0 -5 5 -7 10 -4 6 3 10 8 10 11 0 2 -4 4 -10 4 -5 0 -10
-5 -10 -11z"/>
<path d="M6200 5580 c-12 -7 -10 -9 7 -7 12 0 19 5 17 9 -6 10 -6 10 -24 -2z"/>
<path d="M7099 5588 c-6 -21 -5 -38 1 -38 5 0 8 9 7 20 -1 17 -5 26 -8 18z"/>
<path d="M7265 5580 c-3 -6 1 -7 9 -4 18 7 21 14 7 14 -6 0 -13 -4 -16 -10z"/>
<path d="M5950 5576 c0 -3 9 -10 20 -16 11 -6 20 -8 20 -6 0 3 -9 10 -20 16
-11 6 -20 8 -20 6z"/>
<path d="M6447 5567 c-3 -8 1 -14 8 -14 7 0 11 6 8 14 -3 7 -6 13 -8 13 -2 0
-5 -6 -8 -13z"/>
<path d="M1916 5558 c3 -5 10 -6 15 -3 13 9 11 12 -6 12 -8 0 -12 -4 -9 -9z"/>
<path d="M2280 5560 c-19 -12 -22 -40 -3 -33 12 5 12 7 1 15 -9 7 -3 8 17 4
17 -4 26 -3 20 1 -5 5 -12 11 -15 15 -3 4 -12 3 -20 -2z"/>
<path d="M2814 5558 c-4 -7 -4 -10 1 -6 4 4 15 2 24 -5 14 -11 14 -10 2 6 -16
20 -18 21 -27 5z"/>
<path d="M2916 5558 c3 -5 10 -6 15 -3 13 9 11 12 -6 12 -8 0 -12 -4 -9 -9z"/>
<path d="M6708 5552 c9 -10 19 -17 21 -16 6 5 -20 34 -30 34 -5 0 -1 -8 9 -18z"/>
<path d="M6984 5556 c10 -8 15 -20 10 -27 -4 -8 -3 -10 4 -5 18 11 14 24 -10
36 -22 10 -22 10 -4 -4z"/>
<path d="M1745 5549 c-4 -6 -5 -12 -2 -15 2 -3 7 2 10 11 7 17 1 20 -8 4z"/>
<path d="M2596 5553 c6 -4 14 -15 17 -23 5 -11 6 -9 4 4 -1 11 -9 21 -17 23
-10 3 -11 2 -4 -4z"/>
<path d="M6056 5552 c-3 -4 4 -9 15 -9 23 -2 25 3 4 10 -8 4 -16 3 -19 -1z"/>
<path d="M2655 5540 c-3 -5 -2 -10 4 -10 5 0 13 5 16 10 3 6 2 10 -4 10 -5 0
-13 -4 -16 -10z"/>
<path d="M1800 5529 c0 -5 5 -7 10 -4 6 3 10 8 10 11 0 2 -4 4 -10 4 -5 0 -10
-5 -10 -11z"/>
<path d="M6025 5529 c-4 -6 -4 -13 -1 -16 3 -4 6 -1 6 6 0 7 5 9 12 5 7 -4 8
-3 4 4 -9 15 -13 15 -21 1z"/>
<path d="M7110 5529 c0 -5 5 -7 10 -4 6 3 10 8 10 11 0 2 -4 4 -10 4 -5 0 -10
-5 -10 -11z"/>
<path d="M1770 5521 c0 -10 19 -25 25 -20 1 2 -3 10 -11 17 -8 7 -14 8 -14 3z"/>
<path d="M2225 5521 c-3 -5 -2 -12 3 -15 5 -3 9 1 9 9 0 17 -3 19 -12 6z"/>
<path d="M2546 5521 c-3 -5 0 -11 7 -14 8 -3 14 1 14 9 0 16 -13 19 -21 5z"/>
<path d="M2720 5520 c0 -5 5 -10 11 -10 5 0 7 5 4 10 -3 6 -8 10 -11 10 -2 0
-4 -4 -4 -10z"/>
<path d="M6667 5519 c7 -7 15 -10 18 -7 3 3 -2 9 -12 12 -14 6 -15 5 -6 -5z"/>
<path d="M7143 5515 c0 -8 4 -12 9 -9 5 3 6 10 3 15 -9 13 -12 11 -12 -6z"/>
<path d="M2396 5511 c-3 -5 1 -14 9 -21 10 -9 15 -9 15 -1 0 6 -5 11 -11 11
-5 0 -7 5 -4 10 3 6 4 10 1 10 -3 0 -7 -4 -10 -9z"/>
<path d="M2636 5512 c-3 -5 1 -9 9 -9 8 0 12 4 9 9 -3 4 -7 8 -9 8 -2 0 -6 -4
-9 -8z"/>
<path d="M2796 5512 c-3 -5 1 -9 9 -9 8 0 12 4 9 9 -3 4 -7 8 -9 8 -2 0 -6 -4
-9 -8z"/>
<path d="M2846 5507 c3 -10 9 -15 12 -12 3 3 0 11 -7 18 -10 9 -11 8 -5 -6z"/>
<path d="M5367 5509 c7 -7 15 -10 18 -7 3 3 -2 9 -12 12 -14 6 -15 5 -6 -5z"/>
<path d="M6420 5510 c0 -5 5 -10 11 -10 5 0 7 5 4 10 -3 6 -8 10 -11 10 -2 0
-4 -4 -4 -10z"/>
<path d="M6535 5510 c-16 -7 -17 -9 -3 -9 9 -1 20 4 23 9 7 11 7 11 -20 0z"/>
<path d="M6818 5498 c5 -5 16 -8 23 -6 8 3 3 7 -10 11 -17 4 -21 3 -13 -5z"/>
<path d="M1695 5490 c3 -5 8 -10 11 -10 2 0 4 5 4 10 0 6 -5 10 -11 10 -5 0
-7 -4 -4 -10z"/>
<path d="M5950 5489 c0 -5 5 -7 10 -4 6 3 10 8 10 11 0 2 -4 4 -10 4 -5 0 -10
-5 -10 -11z"/>
<path d="M1875 5480 c-3 -6 1 -7 9 -4 18 7 21 14 7 14 -6 0 -13 -4 -16 -10z"/>
<path d="M2360 5467 c-12 -21 -12 -21 6 -7 10 8 20 15 22 16 2 1 -1 4 -5 7 -5
3 -15 -4 -23 -16z"/>
<path d="M6505 5479 c-4 -6 -5 -12 -2 -15 2 -3 7 2 10 11 7 17 1 20 -8 4z"/>
<path d="M6870 5486 c0 -2 7 -7 16 -10 8 -3 12 -2 9 4 -6 10 -25 14 -25 6z"/>
<path d="M6719 5463 c-13 -16 -12 -17 4 -4 9 7 17 15 17 17 0 8 -8 3 -21 -13z"/>
<path d="M2289 5453 c-13 -16 -12 -17 4 -4 9 7 17 15 17 17 0 8 -8 3 -21 -13z"/>
<path d="M2610 5456 c7 -7 13 -7 20 0 6 6 3 10 -10 10 -13 0 -16 -4 -10 -10z"/>
<path d="M2816 5453 c-6 -14 -5 -15 5 -6 7 7 10 15 7 18 -3 3 -9 -2 -12 -12z"/>
<path d="M2882 5456 c7 -8 17 -12 22 -9 4 3 2 9 -5 14 -22 13 -31 11 -17 -5z"/>
<path d="M2218 5447 c-10 -6 -8 -7 4 -4 9 3 18 1 21 -6 2 -7 6 -5 9 4 7 18
-14 21 -34 6z"/>
<path d="M2325 5451 c-6 -11 13 -26 22 -17 4 3 1 6 -6 6 -7 0 -9 5 -6 10 3 6
4 10 1 10 -3 0 -7 -4 -11 -9z"/>
<path d="M3373 5445 c0 -8 4 -12 9 -9 5 3 6 10 3 15 -9 13 -12 11 -12 -6z"/>
<path d="M2829 5433 c-13 -16 -12 -17 4 -4 9 7 17 15 17 17 0 8 -8 3 -21 -13z"/>
<path d="M2413 5420 c-1 -11 2 -22 8 -25 5 -4 6 2 2 11 -5 13 -3 15 8 9 12 -8
12 -6 0 8 -17 21 -16 21 -18 -3z"/>
<path d="M2517 5430 c9 -10 10 -17 1 -27 -8 -11 -7 -12 6 -7 21 8 20 18 -1 35
-15 11 -16 11 -6 -1z"/>
<path d="M6420 5436 c0 -2 8 -10 18 -17 15 -13 16 -12 3 4 -13 16 -21 21 -21
13z"/>
<path d="M1975 5410 c-3 -6 1 -7 9 -4 18 7 21 14 7 14 -6 0 -13 -4 -16 -10z"/>
<path d="M2691 5404 c0 -11 3 -14 6 -6 3 7 2 16 -1 19 -3 4 -6 -2 -5 -13z"/>
<path d="M2570 5400 c0 -6 7 -10 15 -10 8 0 15 2 15 4 0 2 -7 6 -15 10 -8 3
-15 1 -15 -4z"/>
<path d="M2070 5395 c0 -7 30 -13 34 -7 3 4 -4 9 -15 9 -10 1 -19 0 -19 -2z"/>
<path d="M2550 5360 c0 -5 5 -10 11 -10 5 0 7 5 4 10 -3 6 -8 10 -11 10 -2 0
-4 -4 -4 -10z"/>
<path d="M7755 5359 c-4 -6 -5 -12 -2 -15 2 -3 7 2 10 11 7 17 1 20 -8 4z"/>
<path d="M5015 5341 c-3 -5 -2 -12 3 -15 5 -3 9 1 9 9 0 17 -3 19 -12 6z"/>
<path d="M3630 5266 c0 -2 7 -7 16 -10 8 -3 12 -2 9 4 -6 10 -25 14 -25 6z"/>
<path d="M6670 5182 c0 -4 9 -8 19 -8 11 0 17 4 15 8 -3 4 -12 8 -20 8 -8 0
-14 -4 -14 -8z"/>
<path d="M5885 5170 c-3 -5 -1 -10 4 -10 6 0 11 5 11 10 0 6 -2 10 -4 10 -3 0
-8 -4 -11 -10z"/>
<path d="M5850 5160 c0 -5 5 -10 10 -10 6 0 10 5 10 10 0 6 -4 10 -10 10 -5 0
-10 -4 -10 -10z"/>
<path d="M5377 8309 c-8 -10 -16 -17 -19 -14 -2 3 -5 -1 -6 -7 0 -7 -3 -22 -5
-33 -4 -21 17 -50 31 -41 5 3 7 -6 4 -21 -3 -15 -1 -23 5 -20 5 3 15 2 23 -4
10 -6 11 -9 3 -9 -10 0 -10 -6 -1 -25 6 -14 15 -25 20 -25 4 0 8 -6 8 -14 0
-8 7 -16 15 -20 8 -3 15 -11 15 -18 0 -8 8 -21 18 -30 30 -29 43 -48 32 -48
-5 0 -10 -7 -10 -16 0 -9 5 -12 12 -8 7 4 8 3 4 -4 -6 -10 28 -100 43 -112 3
-3 7 -9 8 -15 5 -31 23 -124 29 -145 3 -14 7 -35 8 -47 0 -12 3 -21 6 -21 19
1 23 -4 10 -12 -13 -8 -12 -10 4 -10 12 0 16 -5 13 -15 -4 -8 -2 -17 3 -20 4
-3 11 1 13 7 4 10 6 10 6 1 1 -8 14 -13 32 -13 17 0 28 4 24 10 -3 6 -2 10 3
10 16 0 41 63 32 80 -5 9 -4 23 2 34 8 14 7 17 -1 12 -6 -4 -11 -3 -11 3 0 5
4 12 9 15 4 3 7 16 6 28 -8 68 -18 115 -27 133 -6 11 -11 21 -10 23 1 1 1 5 1
10 -1 4 -1 15 0 25 1 9 -3 17 -8 17 -6 0 -11 6 -11 14 0 8 -6 21 -13 28 -7 7
-30 44 -51 83 -21 38 -43 73 -49 77 -7 4 -8 8 -4 8 11 0 -44 50 -55 50 -5 0
-7 4 -4 8 3 5 -6 15 -19 22 -13 7 -22 17 -19 22 3 4 1 8 -4 8 -5 0 -22 11 -37
24 -39 34 -62 38 -78 15z m33 -3 c0 -2 -7 -7 -16 -10 -8 -3 -12 -2 -9 4 6 10
25 14 25 6z"/>
<path d="M5905 8110 c3 -5 0 -8 -7 -5 -8 3 -17 -8 -24 -30 -9 -30 -9 -37 5
-45 9 -5 11 -10 4 -10 -8 0 -7 -9 4 -30 8 -17 16 -37 17 -44 1 -8 7 -20 14
-28 6 -8 9 -18 6 -21 -4 -3 5 -12 19 -18 31 -14 82 2 97 31 32 59 -24 190 -84
194 -13 0 -22 4 -19 9 2 4 -5 7 -17 7 -12 0 -18 -4 -15 -10z"/>
<path d="M2980 6520 c0 -19 3 -21 12 -12 9 9 9 15 0 24 -9 9 -12 7 -12 -12z"/>
<path d="M8901 6212 c-6 -2 -9 -8 -5 -13 3 -5 0 -9 -5 -9 -12 0 -15 -43 -4
-54 4 -4 8 -17 8 -29 1 -12 2 -39 3 -60 1 -23 6 -36 12 -32 6 3 10 1 10 -4 0
-6 -6 -11 -12 -11 -10 0 -10 -2 0 -9 8 -4 13 -11 13 -15 -5 -37 1 -76 11 -70
7 5 8 3 3 -5 -4 -8 1 -21 14 -32 19 -18 26 -17 22 4 -1 5 3 6 9 2 6 -3 8 -11
5 -16 -4 -5 1 -9 9 -9 9 0 16 4 16 9 0 5 6 9 13 8 39 -1 49 4 44 23 -3 10 -1
20 3 22 8 3 13 42 11 86 -1 15 -5 21 -12 16 -8 -5 -9 -2 -1 11 11 21 4 53 -27
113 -19 38 -31 47 -54 43 -5 -1 -6 3 -3 8 4 5 1 13 -5 16 -12 8 -61 13 -78 7z"/>
<path d="M8340 6159 c0 -5 5 -7 10 -4 6 3 10 8 10 11 0 2 -4 4 -10 4 -5 0 -10
-5 -10 -11z"/>
<path d="M7091 4814 c0 -11 3 -14 6 -6 3 7 2 16 -1 19 -3 4 -6 -2 -5 -13z"/>
<path d="M3830 4533 c13 -6 13 -33 0 -33 -5 0 -14 8 -19 18 -7 11 -11 12 -11
4 0 -8 -6 -12 -12 -9 -30 10 -175 -83 -162 -105 3 -4 0 -8 -5 -8 -6 0 -11 -9
-11 -20 0 -11 -4 -20 -10 -20 -5 0 -9 -3 -9 -7 4 -22 -2 -33 -13 -27 -10 6
-10 5 -2 -7 7 -8 11 -26 9 -42 -2 -15 1 -25 6 -21 8 5 13 -12 12 -43 -1 -7 3
-13 7 -13 5 0 7 -8 6 -17 -2 -9 5 -24 14 -33 20 -20 79 -45 87 -36 4 3 15 -1
25 -11 10 -9 18 -13 18 -9 0 4 9 2 20 -4 16 -9 22 -8 26 5 3 8 15 15 25 15 10
0 19 3 19 8 0 4 11 8 25 8 14 1 33 5 42 8 15 6 15 8 3 17 -12 8 -10 9 6 4 16
-4 31 3 55 28 33 32 39 43 43 77 2 8 6 23 10 33 5 10 4 23 -3 31 -6 7 -12 24
-13 38 -1 16 -7 24 -15 21 -7 -3 -14 0 -14 6 -3 23 -4 27 -19 44 -35 42 -55
57 -68 52 -9 -3 -12 0 -9 9 4 10 -5 19 -26 27 -37 15 -52 20 -37 12z"/>
<path d="M5620 4404 c-14 -8 -24 -18 -23 -24 2 -5 -3 -7 -11 -4 -8 3 -23 -7
-35 -23 -11 -15 -25 -33 -29 -38 -5 -6 -6 -17 -4 -24 3 -8 0 -11 -6 -7 -11 7
-11 -12 0 -30 4 -6 4 -24 -1 -40 -5 -20 -3 -36 7 -51 8 -13 11 -23 7 -23 -12
0 65 -59 86 -65 10 -4 19 -11 19 -16 0 -5 5 -9 11 -9 5 0 7 4 4 10 -3 6 1 7 9
4 9 -3 16 -10 16 -15 0 -5 5 -9 11 -9 5 0 7 5 4 10 -3 6 1 10 9 10 9 0 16 -4
16 -9 0 -6 9 -9 20 -8 11 1 20 4 20 8 0 4 13 5 29 4 16 -1 35 1 43 6 10 6 10
9 1 9 -7 0 -13 4 -13 10 0 5 6 7 14 4 12 -5 27 15 31 41 0 6 6 9 13 8 7 -2 11
0 11 5 -1 4 0 9 1 12 14 36 19 110 8 110 -5 0 -6 5 -3 10 3 6 0 10 -7 10 -10
0 -9 3 2 10 12 8 12 10 -4 16 -14 5 -15 9 -4 15 10 7 11 9 0 9 -7 0 -11 4 -7
9 6 11 -29 34 -38 25 -3 -3 -4 3 -3 13 0 9 -5 18 -11 19 -7 1 -16 3 -20 4 -5
1 -11 2 -15 1 -5 0 -8 2 -8 7 0 13 -124 10 -150 -4z m184 -332 c3 -5 -1 -9 -9
-9 -8 0 -12 4 -9 9 3 4 7 8 9 8 2 0 6 -4 9 -8z"/>
<path d="M4730 4237 c-12 -12 -20 -16 -16 -9 4 6 3 12 -1 12 -5 0 -15 -6 -22
-12 -11 -11 -12 -10 -6 2 6 12 5 13 -6 3 -15 -15 -33 -17 -25 -4 4 5 -3 7 -14
4 -11 -3 -23 -9 -26 -14 -3 -5 -18 -9 -35 -9 -19 0 -37 -9 -51 -25 -23 -26
-26 -35 -35 -95 -3 -19 -11 -38 -17 -42 -8 -6 -7 -8 2 -8 6 0 12 -9 12 -21 0
-11 5 -17 10 -14 6 3 10 1 10 -6 0 -18 80 -90 91 -83 5 3 12 -1 15 -10 3 -8
12 -12 20 -9 18 7 20 -43 2 -51 -10 -5 -10 -7 0 -12 18 -9 15 -27 -4 -20 -14
5 -15 4 -4 -9 7 -8 10 -24 7 -35 -3 -11 -1 -22 3 -25 5 -3 8 -31 7 -62 l-3
-57 -42 -2 c-25 -1 -39 2 -36 8 4 6 -3 5 -15 -1 -12 -7 -26 -9 -31 -6 -5 3
-11 1 -15 -5 -4 -6 -12 -7 -18 -3 -23 14 -56 16 -157 9 -19 -1 -41 2 -47 7 -9
6 -13 6 -13 -2 0 -7 -8 -8 -26 -1 -33 13 -91 13 -99 0 -4 -6 -13 -7 -23 -1
-16 9 -76 15 -97 11 -5 -1 -14 -1 -20 0 -5 1 -89 3 -185 5 -96 2 -188 6 -205
10 -16 4 -39 9 -50 10 -11 1 -32 5 -48 9 -18 6 -32 4 -42 -4 -9 -7 -18 -10
-22 -7 -8 9 -43 -38 -43 -58 0 -9 5 -26 11 -37 9 -16 8 -19 -3 -12 -7 4 -2 -6
12 -24 14 -17 37 -35 53 -38 15 -4 27 -11 27 -17 0 -6 3 -7 6 -4 4 3 14 2 24
-3 9 -5 28 -11 41 -14 57 -12 69 -15 88 -26 15 -8 21 -8 21 0 0 7 5 8 13 3 6
-4 20 -8 30 -8 10 0 22 -7 27 -15 7 -10 10 -11 10 -2 0 6 5 12 11 12 5 0 7 -4
4 -10 -3 -5 -1 -10 4 -10 6 0 11 6 11 13 0 8 4 7 10 -3 6 -9 13 -11 18 -5 8
12 32 13 49 2 6 -4 13 -2 15 4 3 9 9 9 24 1 13 -7 25 -7 38 0 14 8 17 7 12 -1
-8 -12 -4 -13 59 -16 22 -1 61 -5 86 -9 25 -4 65 -3 87 3 26 5 40 5 36 0 -6
-11 62 -7 72 4 4 3 13 -1 22 -9 10 -11 17 -12 22 -4 4 6 14 8 22 5 9 -4 19 -1
23 4 3 6 11 9 16 5 6 -3 37 -8 70 -10 33 -2 63 -5 67 -8 4 -2 18 1 32 7 14 6
58 11 98 12 40 1 75 5 79 8 3 4 12 2 20 -4 7 -6 13 -7 13 -2 0 5 27 8 60 7 33
-1 63 2 66 7 3 6 12 5 21 -2 19 -16 255 -20 265 -4 5 6 8 6 8 0 0 -11 126 -11
168 0 26 8 95 7 135 -1 11 -2 29 1 40 7 14 8 22 8 27 -1 5 -7 10 -8 14 -2 3 5
28 10 56 11 55 2 144 7 161 9 5 1 7 7 4 12 -10 16 18 7 31 -10 10 -12 14 -12
28 -1 9 7 16 10 16 6 0 -4 6 -3 13 4 10 8 17 7 25 -1 8 -8 12 -9 12 -1 0 6 8
10 18 9 32 -5 71 14 65 32 -6 15 -5 15 11 3 17 -14 22 -8 28 34 1 6 11 17 22
26 21 17 30 49 15 49 -6 0 -7 4 -4 10 8 13 -39 60 -60 60 -8 0 -15 4 -15 9 0
13 -43 10 -52 -4 -5 -6 -8 -5 -8 3 0 7 -5 10 -11 7 -16 -10 -109 -14 -109 -5
0 11 -69 10 -75 0 -3 -5 -14 -7 -25 -5 -12 2 -18 0 -16 -4 8 -13 -123 -25
-289 -28 -130 -2 -259 -8 -275 -14 -15 -5 -70 -3 -70 2 0 4 -24 7 -52 7 -45 1
-79 3 -133 11 -5 0 -9 25 -9 53 1 29 -3 59 -8 66 -7 8 -7 12 2 12 10 0 10 3 0
15 -7 9 -10 18 -6 22 3 3 -1 18 -10 31 -16 24 -15 26 14 53 16 15 32 25 35 23
3 -3 20 14 37 37 17 24 26 45 21 47 -6 2 -11 8 -11 13 0 6 5 7 10 4 6 -3 10
-3 11 2 0 4 2 21 4 38 2 16 0 34 -6 41 -5 7 -8 16 -7 20 5 14 -28 55 -37 46
-5 -4 -5 -2 -2 4 8 15 -25 54 -46 54 -9 0 -19 5 -22 10 -5 8 -11 7 -21 -1 -8
-7 -14 -7 -14 -1 0 10 -29 22 -66 28 -12 1 -31 -7 -44 -19z m-150 -47 c0 -5
-5 -10 -11 -10 -5 0 -7 5 -4 10 3 6 8 10 11 10 2 0 4 -4 4 -10z"/>
<path d="M7153 3974 c0 -16 13 -19 21 -5 3 5 0 11 -7 14 -8 3 -14 -1 -14 -9z"/>
<path d="M1235 3762 c-30 -6 -66 -33 -58 -45 4 -6 1 -7 -8 -1 -21 13 -32 12
-49 -7 -8 -9 -32 -21 -52 -28 -21 -7 -40 -17 -44 -22 -3 -5 -9 -7 -14 -4 -5 3
-23 -1 -41 -10 -17 -9 -44 -17 -60 -17 -16 -1 -32 -5 -36 -11 -3 -5 -9 -3 -15
4 -6 11 -8 9 -6 -6 2 -14 -2 -19 -14 -17 -17 3 -23 -9 -19 -32 1 -5 -4 -4 -12
3 -12 9 -19 7 -35 -14 -12 -14 -23 -26 -26 -26 -18 1 -35 -13 -29 -23 4 -6 -1
-5 -11 3 -9 8 -16 10 -15 5 4 -24 -2 -44 -16 -44 -8 0 -19 -9 -25 -20 -6 -11
-17 -20 -24 -20 -7 0 -21 -9 -31 -20 -10 -11 -21 -17 -25 -15 -4 3 -15 -13
-24 -35 -11 -27 -20 -38 -30 -34 -10 4 -17 -3 -22 -20 -4 -17 -13 -26 -25 -26
-13 0 -19 -7 -19 -21 0 -11 -4 -17 -10 -14 -5 3 -10 1 -10 -6 0 -7 -3 -9 -7
-6 -3 4 -12 -1 -19 -11 -8 -10 -13 -12 -14 -5 0 17 -30 4 -30 -13 0 -8 -7 -14
-15 -14 -9 0 -12 -6 -8 -17 4 -10 2 -14 -5 -9 -6 3 -16 -2 -21 -12 -6 -11 -23
-22 -39 -25 -18 -4 -31 -14 -35 -26 -3 -13 -13 -21 -25 -21 -12 0 -24 -5 -28
-12 -5 -7 -3 -8 6 -3 9 5 11 4 6 -3 -4 -7 -16 -12 -26 -12 -10 0 -22 -9 -25
-20 -4 -11 -10 -18 -14 -15 -5 2 -17 -7 -27 -20 -10 -14 -27 -25 -36 -25 -10
0 -18 -7 -18 -15 0 -9 -6 -12 -15 -9 -10 4 -15 0 -15 -15 0 -12 -4 -21 -10
-21 -6 0 -9 -113 -9 -300 0 -196 3 -300 10 -300 5 0 9 8 7 18 -2 12 3 17 18
16 15 -1 20 4 17 16 -2 9 3 22 11 29 9 8 16 19 16 26 0 7 7 18 15 25 8 7 12
16 9 21 -3 5 0 9 6 9 6 0 9 4 5 9 -3 5 3 12 14 16 11 3 25 13 33 23 12 16 11
16 -7 2 -18 -14 -19 -13 -8 1 7 9 10 19 6 23 -4 4 0 4 10 0 10 -3 17 -1 17 6
0 6 5 8 12 4 8 -5 9 -2 5 10 -5 14 -3 16 12 11 16 -5 20 2 25 49 6 42 12 55
27 59 12 3 17 1 12 -5 -4 -7 -1 -8 6 -4 7 5 10 14 7 21 -3 9 2 12 14 10 11 -2
19 1 17 8 -1 7 4 11 11 9 8 -1 11 2 7 8 -4 7 2 14 14 17 11 3 18 10 14 16 -4
6 0 8 11 4 9 -4 14 -3 11 2 -3 5 -1 12 5 16 5 3 10 1 10 -5 0 -7 7 -5 16 4 8
9 20 14 25 11 5 -4 9 -1 9 4 0 6 -4 11 -10 11 -5 0 -10 4 -10 9 0 5 8 7 19 4
13 -3 20 2 24 18 4 16 11 20 27 16 17 -4 19 -3 9 9 -9 11 -8 14 5 14 9 0 16 5
16 11 0 5 4 8 9 5 5 -4 7 4 3 16 -3 13 -1 19 5 15 6 -4 14 4 17 18 4 14 12 24
19 23 7 -2 26 11 41 27 15 17 30 29 32 28 11 -7 24 -2 19 7 -3 6 -1 10 4 10 6
0 11 7 11 16 0 17 75 96 83 88 3 -3 8 4 12 15 3 12 11 19 16 15 5 -3 9 -2 8 3
-3 20 2 34 11 28 6 -3 10 -1 10 5 0 6 4 8 10 5 5 -3 19 10 31 29 12 20 25 36
30 36 5 0 11 11 15 24 3 14 15 27 28 30 12 3 38 20 57 38 19 18 35 32 37 30
10 -10 23 2 19 18 -3 11 0 23 5 27 7 3 8 1 4 -5 -11 -17 9 -15 24 3 7 8 19 15
26 15 8 0 17 12 20 26 5 19 9 22 15 12 6 -10 9 -10 9 0 0 6 6 12 14 12 7 0 22
12 31 28 10 15 28 36 40 47 12 11 22 24 22 29 1 4 14 23 31 41 28 29 30 36 21
68 -10 36 -36 48 -84 39z"/>
<path d="M8166 2988 c3 -4 9 -8 15 -8 5 0 9 4 9 8 0 5 -7 9 -15 9 -8 0 -12 -4
-9 -9z"/>
<path d="M5032 2649 c-13 -5 -29 -6 -34 -2 -6 3 -8 2 -5 -4 3 -5 -12 -17 -34
-27 -21 -10 -37 -21 -34 -26 3 -5 -4 -14 -15 -20 -11 -6 -20 -7 -20 -3 0 4 -7
0 -14 -10 -8 -10 -21 -20 -29 -21 -8 -1 -23 -8 -33 -16 -16 -13 -17 -13 -10 0
4 9 1 8 -7 -2 -8 -10 -19 -18 -26 -18 -6 0 -11 -4 -11 -10 0 -5 -8 -10 -18
-10 -10 0 -24 -9 -32 -20 -8 -11 -22 -20 -32 -20 -10 0 -17 -5 -16 -11 2 -6
-5 -13 -16 -14 -10 -2 -40 -26 -65 -54 -26 -28 -53 -51 -59 -51 -7 0 -12 -7
-12 -16 0 -8 -4 -13 -8 -10 -5 3 -14 -4 -22 -14 -8 -10 -17 -17 -22 -14 -4 3
-8 0 -8 -6 0 -6 -4 -9 -9 -5 -6 3 -13 -1 -18 -8 -4 -7 -16 -17 -26 -20 -10 -4
-16 -11 -13 -16 3 -5 -1 -12 -10 -15 -9 -3 -12 -11 -8 -18 4 -7 4 -10 -1 -6
-4 4 -13 2 -21 -5 -7 -7 -20 -18 -29 -25 -8 -7 -13 -17 -10 -22 3 -6 -1 -7 -9
-4 -9 4 -16 1 -16 -6 0 -7 -7 -10 -15 -6 -14 5 -42 -30 -37 -46 1 -5 -1 -7 -6
-7 -19 3 -33 -2 -27 -11 3 -5 1 -10 -5 -10 -14 0 -67 -40 -54 -40 5 -1 -6 -7
-25 -16 -19 -8 -31 -17 -28 -20 9 -10 -17 -32 -31 -27 -8 4 -10 0 -5 -13 4
-11 3 -15 -5 -10 -13 8 -62 -32 -62 -51 0 -7 -7 -13 -15 -13 -8 0 -15 -4 -15
-9 0 -5 -12 -12 -26 -15 -17 -5 -24 -12 -20 -21 3 -10 -5 -17 -27 -23 -18 -5
-31 -14 -30 -20 2 -7 -4 -9 -14 -5 -10 4 -14 2 -10 -4 4 -6 -6 -16 -23 -22
-17 -5 -30 -15 -30 -20 0 -6 -4 -10 -9 -8 -11 3 -66 -55 -63 -66 1 -5 -2 -5
-8 -2 -16 10 -60 -34 -53 -51 3 -10 0 -12 -10 -8 -15 5 -27 25 -33 53 -1 8 -6
17 -11 20 -11 7 -10 22 0 39 5 8 3 12 -7 12 -15 0 -20 14 -19 47 0 7 -8 15
-17 18 -11 4 -17 13 -15 24 2 10 -7 25 -21 36 -13 10 -24 23 -24 30 0 12 -81
75 -97 75 -12 0 -43 38 -43 52 0 6 -3 8 -6 5 -4 -3 -16 -1 -28 5 -11 7 -25 11
-30 10 -5 -2 -13 3 -18 10 -8 10 -11 10 -15 0 -2 -6 -8 -10 -13 -7 -14 9 -70
13 -70 5 0 -4 -11 -5 -25 -2 -17 3 -25 0 -23 -8 3 -11 -15 -19 -49 -22 -7 -1
-13 -7 -13 -15 0 -7 -5 -13 -12 -13 -6 0 -9 -2 -6 -6 3 -3 -1 -26 -8 -51 -16
-54 -18 -74 -4 -53 8 12 10 12 10 1 0 -9 4 -10 13 -5 7 5 4 1 -6 -8 -16 -15
-16 -18 -4 -18 9 0 19 -5 23 -12 5 -7 3 -8 -5 -3 -9 5 -12 1 -10 -11 2 -11 -1
-25 -5 -33 -7 -11 -5 -13 7 -8 19 7 41 -17 33 -38 -4 -10 -2 -14 5 -9 6 4 14
2 18 -3 8 -11 83 -48 94 -45 4 1 7 -6 7 -17 0 -10 9 -21 20 -24 12 -3 20 -14
20 -27 0 -11 5 -18 10 -15 6 3 10 3 11 -2 0 -4 2 -15 4 -23 21 -95 26 -160 12
-160 -5 0 -2 -9 8 -20 10 -11 13 -20 8 -20 -16 0 -24 -42 -11 -57 8 -9 7 -13
-2 -13 -7 0 -10 -7 -6 -15 3 -8 1 -15 -4 -15 -6 0 -10 -9 -10 -21 0 -11 -4
-18 -9 -15 -5 4 -7 -4 -3 -16 3 -13 1 -19 -5 -15 -9 6 -40 -49 -36 -63 1 -3
-14 -15 -33 -28 -19 -12 -34 -18 -34 -13 0 6 -19 10 -42 10 -71 1 -78 2 -78
11 0 5 -9 7 -20 5 -12 -2 -23 2 -27 11 -3 8 -10 13 -17 12 -6 -1 -24 5 -41 14
-34 19 -130 107 -130 120 0 4 -4 8 -10 9 -5 0 -13 9 -18 21 -4 11 -15 22 -25
25 -17 4 -54 54 -52 69 1 4 -5 11 -14 16 -9 5 -16 16 -16 24 0 8 -4 12 -10 9
-5 -3 -12 6 -16 20 -3 14 -10 25 -15 25 -5 0 -9 9 -9 20 0 11 -4 20 -8 20 -4
0 -13 15 -20 34 -7 18 -23 45 -36 59 -13 14 -22 28 -20 30 3 2 -3 10 -12 17
-13 12 -19 12 -37 0 -19 -11 -20 -11 -10 1 10 12 11 25 3 59 0 3 -5 -3 -11
-13 -6 -9 -15 -15 -20 -12 -5 4 -7 11 -4 16 12 18 -35 9 -55 -11 -11 -11 -22
-20 -25 -20 -3 0 -9 0 -13 0 -12 0 -52 -35 -52 -45 0 -5 -7 -17 -17 -27 -9
-10 -16 -35 -16 -58 0 -22 -5 -40 -10 -40 -6 0 -3 -6 7 -13 14 -10 15 -18 7
-39 -7 -18 -7 -29 0 -33 5 -4 7 -11 4 -16 -4 -5 -1 -9 5 -9 6 0 9 -4 5 -9 -7
-12 25 -81 38 -81 5 0 7 -9 4 -20 -3 -13 -1 -18 6 -13 7 4 8 0 4 -11 -5 -12
-3 -16 5 -13 7 2 12 10 10 17 -2 11 0 11 11 1 8 -6 13 -21 10 -31 -4 -14 0
-20 11 -20 10 0 14 -5 10 -11 -3 -6 0 -15 7 -20 12 -7 12 -9 0 -9 -8 0 0 -17
21 -43 19 -23 34 -50 32 -59 -1 -10 4 -18 11 -18 7 0 15 -7 19 -15 3 -8 17
-20 32 -25 17 -7 24 -15 20 -25 -3 -8 0 -17 6 -21 7 -4 8 -3 4 4 -4 7 -2 12 3
12 6 0 11 -7 11 -16 0 -8 5 -12 10 -9 6 3 10 1 10 -5 0 -7 7 -9 16 -6 8 3 12
2 9 -4 -3 -6 6 -15 20 -20 14 -5 24 -14 21 -19 -4 -5 -1 -11 6 -13 21 -7 -3
-28 -33 -28 -19 0 -40 -10 -56 -26 -30 -30 -87 -57 -99 -46 -5 4 -2 -2 6 -12
14 -17 13 -18 -8 -12 -12 4 -22 3 -22 -1 0 -5 -10 -20 -22 -33 -13 -14 -22
-29 -20 -34 2 -5 -4 -4 -12 4 -11 8 -16 9 -16 1 0 -6 -11 -13 -25 -17 -14 -3
-25 -11 -25 -17 0 -6 -3 -7 -6 -4 -4 4 -14 -1 -23 -11 -35 -37 -84 -76 -77
-62 4 8 0 6 -9 -5 -9 -11 -22 -19 -28 -17 -7 2 -9 0 -5 -4 4 -4 0 -13 -10 -21
-9 -8 -11 -11 -3 -7 10 5 12 3 6 -5 -4 -7 -16 -10 -27 -8 -14 4 -17 2 -9 -7
13 -15 5 -27 -13 -20 -7 3 -24 -6 -38 -19 -14 -13 -41 -35 -60 -48 -18 -13
-39 -31 -46 -41 -7 -10 -17 -16 -22 -13 -5 3 -15 -3 -22 -13 -7 -11 -16 -19
-20 -18 -4 0 -16 -6 -26 -15 -10 -8 -23 -14 -30 -11 -7 2 -12 -4 -12 -13 0 -9
-6 -15 -12 -13 -7 1 -27 -12 -45 -30 -31 -32 -60 -44 -48 -19 4 6 0 4 -8 -6
-8 -9 -23 -17 -33 -17 -15 0 -16 -2 -5 -9 11 -7 11 -10 0 -17 -37 -23 -59 -32
-59 -23 0 6 -10 -1 -22 -14 -13 -13 -35 -27 -49 -30 -15 -4 -29 -13 -32 -21
-7 -17 98 -38 298 -60 99 -11 133 -12 144 -3 8 7 15 11 15 9 1 -4 37 7 56 18
8 4 14 13 13 19 -2 6 4 11 12 11 8 0 15 4 15 8 0 16 39 54 49 48 5 -4 19 8 31
24 12 17 25 29 28 26 3 -3 12 3 19 14 10 15 21 19 35 14 11 -3 18 -2 15 3 -3
5 14 21 39 37 24 15 44 30 44 33 0 2 -6 1 -12 -3 -7 -4 -5 2 6 14 10 12 22 20
26 17 9 -5 56 47 52 58 -1 5 2 6 6 3 5 -3 22 6 37 20 15 14 33 23 40 20 7 -2
33 18 59 45 26 27 67 59 91 71 25 12 45 29 45 37 0 12 2 13 8 3 7 -9 13 -8 26
7 10 11 23 18 29 16 7 -2 28 15 47 38 20 24 46 43 59 45 13 1 32 13 42 26 21
27 66 28 85 1 8 -11 14 -13 19 -5 5 8 13 6 27 -6 16 -16 21 -16 28 -4 9 14 15
6 11 -14 -1 -5 6 -3 15 5 14 11 16 11 10 0 -7 -10 -3 -12 14 -6 15 5 20 4 16
-4 -5 -7 3 -9 24 -5 19 4 30 2 30 -5 0 -6 5 -11 11 -11 5 0 8 4 5 8 -2 4 4 14
16 21 11 7 17 8 14 3 -3 -6 1 -13 10 -16 9 -3 12 -2 9 5 -12 18 16 39 43 32
17 -4 23 -2 18 6 -5 7 1 11 14 11 16 0 20 4 16 16 -3 8 -2 12 4 9 9 -6 43 8
40 16 -5 13 14 37 26 32 8 -3 21 0 29 7 8 6 20 8 26 4 8 -4 9 -3 5 4 -4 7 -15
12 -24 12 -12 0 -9 4 8 13 14 7 33 29 43 50 10 21 22 35 27 32 6 -3 14 5 19
18 6 14 15 28 21 32 5 3 8 11 4 16 -3 5 0 16 6 24 7 8 9 15 6 15 -4 0 0 7 9
16 13 14 14 19 3 25 -8 6 -9 9 -1 9 6 0 10 11 8 25 -1 17 3 25 13 25 11 0 12
3 3 14 -6 7 -9 24 -7 37 3 13 5 27 5 32 1 4 8 7 16 7 8 0 14 3 13 8 -5 12 41
52 59 52 9 0 13 3 10 7 -7 6 21 30 37 31 5 0 13 6 17 14 7 10 9 10 9 0 0 -7 5
-10 11 -7 6 4 8 13 5 21 -5 13 13 20 39 14 6 -1 7 1 3 5 -7 8 33 51 45 47 4
-1 7 2 7 8 0 5 7 10 15 10 9 0 19 8 22 18 10 24 31 44 42 38 5 -3 12 1 15 10
3 9 11 12 18 8 8 -5 9 -2 5 10 -4 10 -3 15 4 11 5 -4 21 0 34 9 14 9 27 16 30
16 3 0 12 5 19 12 7 7 30 26 50 42 20 15 34 32 31 36 -3 5 5 6 17 2 14 -3 19
-2 14 6 -4 7 -1 12 6 12 11 0 45 28 151 124 9 9 19 15 22 14 10 -5 75 64 69
73 -3 5 3 6 12 2 11 -4 15 -3 10 5 -4 7 0 10 12 7 10 -2 25 1 33 7 11 8 9 8
-6 4 -20 -6 -20 -6 -1 9 11 8 24 15 29 15 4 0 5 5 2 10 -3 6 3 10 15 10 12 0
18 5 15 10 -3 6 1 10 9 10 9 0 16 5 16 11 0 8 5 7 15 -1 13 -11 14 -10 9 4 -4
9 0 24 8 34 9 9 18 24 21 32 4 12 6 11 6 -3 1 -17 2 -17 17 -3 8 9 20 14 24
11 5 -3 7 4 5 15 -3 14 1 20 15 20 10 0 25 7 34 15 8 8 20 15 27 15 7 0 4 6
-7 14 -14 11 -15 14 -4 14 30 -2 50 2 48 10 -2 4 -1 7 2 7 3 1 20 15 38 33 29
28 35 31 48 18 8 -8 13 -19 12 -23 -5 -18 14 -51 35 -62 18 -10 19 -11 2 -6
-19 5 -19 4 -3 -8 10 -8 15 -17 11 -20 -3 -4 -1 -7 5 -7 7 0 12 -7 12 -16 0
-8 5 -12 10 -9 6 3 10 -3 10 -15 0 -12 4 -18 10 -15 5 3 7 0 5 -8 -3 -7 5 -19
19 -26 14 -8 30 -27 37 -42 6 -16 15 -29 20 -29 5 0 11 -11 15 -25 3 -14 10
-25 14 -25 4 0 10 -11 12 -25 3 -14 1 -25 -3 -25 -5 0 -9 -5 -9 -12 0 -9 3 -9
12 0 16 16 28 15 28 -2 0 -25 68 -70 105 -70 25 0 32 -3 24 -12 -7 -8 -6 -14
3 -17 7 -3 -1 -10 -19 -17 -17 -6 -34 -18 -37 -27 -4 -8 -13 -13 -21 -9 -8 3
-14 2 -14 -2 3 -19 -2 -26 -10 -13 -7 11 -11 9 -20 -8 -7 -11 -18 -21 -26 -21
-8 0 -18 -6 -22 -13 -4 -7 -20 -18 -35 -24 -16 -7 -28 -17 -28 -23 0 -5 -7
-10 -15 -10 -8 0 -15 -6 -15 -12 0 -9 -4 -8 -10 2 -5 8 -10 10 -10 3 0 -6 -20
-21 -44 -33 -25 -12 -55 -29 -68 -39 -13 -10 -40 -21 -61 -25 -21 -4 -35 -11
-32 -16 3 -6 0 -7 -8 -4 -9 3 -22 -4 -31 -18 -9 -12 -16 -17 -16 -10 0 8 -7 9
-24 2 -13 -5 -27 -6 -32 -2 -4 4 -3 1 1 -7 6 -11 4 -13 -7 -8 -10 3 -26 -5
-42 -24 -14 -16 -32 -29 -40 -29 -7 0 -24 -10 -38 -22 -33 -30 -51 -40 -186
-110 -62 -32 -111 -54 -108 -49 3 5 -5 8 -19 7 -14 0 -25 -6 -25 -12 0 -6 -13
-17 -28 -25 -85 -42 -107 -55 -110 -61 -2 -5 -10 -8 -18 -8 -8 0 -14 -4 -14
-10 0 -5 -7 -10 -15 -10 -8 0 -15 -5 -15 -11 0 -5 -4 -8 -9 -5 -4 3 -19 -3
-31 -14 -12 -11 -27 -17 -33 -13 -6 3 -7 1 -3 -5 4 -7 1 -12 -9 -12 -8 0 -18
-7 -22 -16 -3 -8 -12 -13 -19 -10 -8 3 -14 -1 -14 -11 0 -9 -3 -13 -7 -10 -3
4 -17 0 -30 -8 -13 -9 -23 -13 -23 -10 0 2 -28 -15 -62 -38 -35 -24 -62 -49
-60 -56 1 -7 -2 -10 -8 -6 -6 4 -29 -10 -51 -30 -26 -23 -48 -35 -59 -32 -14
3 -17 1 -13 -11 4 -10 2 -13 -5 -8 -7 4 -12 1 -12 -8 0 -8 -8 -17 -18 -21 -11
-3 -41 -26 -68 -50 -27 -25 -61 -51 -76 -58 -16 -6 -28 -18 -28 -26 0 -8 -3
-11 -7 -8 -3 4 -22 -10 -42 -30 -20 -21 -38 -37 -41 -36 -3 1 -26 -16 -50 -37
-31 -27 -47 -35 -52 -27 -6 9 -8 9 -8 0 0 -14 -90 -103 -103 -103 -4 0 -5 5
-1 12 4 7 3 8 -5 4 -6 -4 -9 -12 -6 -17 4 -5 -1 -9 -10 -9 -9 0 -14 -4 -11 -9
3 -5 -8 -14 -24 -21 -18 -8 -33 -22 -36 -37 -4 -16 -9 -21 -14 -13 -4 7 -13 3
-24 -14 -9 -14 -22 -26 -29 -26 -7 0 -37 -22 -67 -50 -30 -27 -59 -50 -63 -50
-5 0 -6 -4 -3 -9 4 -5 -2 -7 -12 -5 -10 3 -29 -7 -46 -25 l-30 -31 203 0 c132
0 200 3 196 10 -3 6 -1 10 5 10 6 0 9 4 6 9 -3 4 6 7 20 5 14 -1 23 0 20 3 -5
6 18 33 29 33 4 0 19 13 35 30 15 16 30 27 32 24 3 -3 18 9 34 26 16 16 32 30
37 30 4 0 20 11 35 24 61 55 75 66 84 66 5 0 22 14 39 31 37 37 115 98 131
102 6 1 26 17 44 34 18 18 37 33 41 33 4 0 21 11 37 25 16 14 34 25 40 25 6 0
34 20 61 45 28 25 58 47 68 51 9 3 17 12 17 20 0 8 3 13 8 12 14 -3 61 25 56
33 -3 5 2 9 11 9 13 0 49 27 99 76 6 6 17 9 24 6 6 -2 12 1 12 7 0 6 7 8 15 5
8 -4 15 -2 15 4 0 9 46 27 62 24 4 -1 5 5 2 13 -5 11 -2 13 12 8 11 -4 15 -3
11 4 -4 7 0 9 11 7 9 -3 37 4 62 15 24 11 48 17 54 14 5 -3 6 -1 3 4 -4 6 0
16 8 23 12 10 15 10 15 0 0 -9 7 -7 21 6 12 10 23 18 25 17 12 -7 108 49 132
77 8 9 11 10 7 1 -6 -9 -1 -9 17 3 14 9 28 13 31 10 4 -4 9 1 13 10 3 9 12 16
20 16 8 0 22 4 32 10 9 5 30 14 45 20 16 5 25 15 22 20 -4 6 -3 10 2 9 19 -3
52 14 46 24 -3 6 -1 7 5 3 14 -9 61 24 62 43 0 11 3 11 17 0 11 -10 14 -10 9
-1 -7 11 6 16 42 15 6 -1 12 6 12 14 0 10 6 13 17 9 10 -4 14 -4 10 0 -4 4 6
13 23 20 17 8 30 21 30 31 0 14 2 15 9 4 6 -10 13 -10 28 -2 11 5 23 8 25 5 3
-2 11 2 18 11 7 8 21 15 31 15 11 0 19 7 19 16 0 11 6 15 20 11 11 -3 18 -1
14 4 -4 8 16 14 38 10 4 0 5 6 2 14 -4 10 0 15 13 15 10 0 25 6 31 12 7 7 18
13 25 13 7 0 12 9 12 20 0 13 6 20 18 19 9 -1 17 4 17 12 0 7 5 16 12 20 7 5
9 2 5 -9 -4 -11 -2 -14 8 -10 8 3 12 9 9 14 -3 5 2 9 10 9 8 0 19 6 23 14 11
18 65 44 81 39 6 -3 12 0 12 7 0 6 5 8 12 4 8 -5 9 -2 5 9 -4 11 -1 17 8 17 8
0 15 5 15 11 0 6 6 9 12 7 15 -5 27 6 51 50 10 18 16 40 13 48 -3 7 -1 14 4
14 6 0 10 9 10 21 0 11 5 17 10 14 6 -3 10 0 10 7 0 7 9 19 20 26 17 10 19 16
9 33 -8 15 -8 19 0 15 7 -5 11 2 11 16 0 18 2 20 9 9 8 -12 11 -10 15 10 3 13
6 33 5 44 0 11 3 34 7 50 8 35 8 45 -4 107 -5 26 -15 55 -23 64 -11 14 -11 16
0 10 8 -5 6 2 -5 20 -10 15 -17 38 -16 51 2 13 -1 23 -7 23 -6 0 -11 7 -11 15
0 7 -8 19 -17 25 -11 7 -14 13 -7 16 12 5 -51 74 -69 74 -6 0 -7 3 -4 7 4 3
-4 20 -16 37 -13 17 -26 39 -30 49 -4 11 -12 15 -18 11 -7 -4 -9 -3 -6 3 4 6
-4 19 -18 29 -13 10 -22 21 -19 26 3 4 -3 5 -12 1 -14 -5 -16 -3 -11 11 6 15
3 18 -18 14 -13 -3 -23 -2 -20 2 8 14 -32 38 -48 28 -13 -7 -15 -5 -11 7 4 10
0 15 -10 15 -9 0 -16 4 -16 8 0 5 -16 14 -35 22 -19 7 -31 18 -28 23 3 5 -3 6
-16 2 -14 -4 -21 -2 -21 7 0 7 -12 14 -27 14 -16 1 -44 4 -63 7 -19 3 -46 1
-58 -4z m-67 -49 c3 -5 1 -10 -4 -10 -6 0 -11 5 -11 10 0 6 2 10 4 10 3 0 8
-4 11 -10z m231 -210 c55 -27 109 -83 137 -142 12 -26 30 -50 40 -53 9 -4 17
-11 17 -16 0 -6 -4 -7 -10 -4 -13 8 -13 -1 1 -26 5 -11 15 -17 22 -13 7 4 9 4
5 -1 -4 -4 4 -21 18 -38 14 -16 28 -43 31 -58 3 -17 10 -26 16 -22 6 4 8 0 4
-10 -4 -10 -2 -17 4 -17 6 0 9 -7 5 -15 -3 -8 -1 -15 4 -15 6 0 10 -7 10 -16
0 -10 -6 -14 -15 -10 -13 5 -19 -5 -16 -26 0 -3 -14 -2 -32 4 -17 5 -38 10
-46 11 -8 1 -28 16 -44 32 -16 17 -34 29 -39 27 -5 -1 -7 2 -4 6 7 12 -27 52
-43 52 -7 0 -9 5 -5 12 5 8 2 9 -12 4 -10 -4 -15 -4 -11 0 10 10 -26 65 -39
60 -7 -3 -10 2 -7 12 2 11 -5 21 -18 27 -12 6 -24 18 -25 28 -3 25 -24 48 -37
40 -6 -4 -8 0 -4 11 4 11 -1 25 -13 39 -11 11 -25 38 -31 59 -5 21 -15 38 -21
38 -6 0 -8 3 -5 7 4 3 17 -2 29 -13 l22 -19 -17 28 c-17 27 -17 28 5 36 32 12
72 5 124 -19z m164 -94 c0 -3 -4 -8 -10 -11 -5 -3 -10 -1 -10 4 0 6 5 11 10
11 6 0 10 -2 10 -4z m-1512 -615 c3 -8 -1 -12 -9 -9 -7 2 -15 10 -17 17 -3 8
1 12 9 9 7 -2 15 -10 17 -17z m-1488 -51 c0 -5 -2 -10 -4 -10 -3 0 -8 5 -11
10 -3 6 -1 10 4 10 6 0 11 -4 11 -10z m1370 -20 c0 -5 -2 -10 -4 -10 -3 0 -8
5 -11 10 -3 6 -1 10 4 10 6 0 11 -4 11 -10z m915 -270 c-3 -5 -11 -10 -16 -10
-6 0 -7 5 -4 10 3 6 11 10 16 10 6 0 7 -4 4 -10z m-995 -16 c0 -8 -5 -12 -10
-9 -6 4 -8 11 -5 16 9 14 15 11 15 -7z m-100 -274 c0 -5 -2 -10 -4 -10 -3 0
-8 5 -11 10 -3 6 -1 10 4 10 6 0 11 -4 11 -10z m-1265 -780 c-3 -5 -12 -10
-18 -10 -7 0 -6 4 3 10 19 12 23 12 15 0z"/>
<path d="M4532 2334 c-7 -8 -8 -14 -3 -14 10 0 25 19 20 25 -2 1 -10 -3 -17
-11z"/>
<path d="M8410 2340 c0 -5 5 -10 11 -10 5 0 7 5 4 10 -3 6 -8 10 -11 10 -2 0
-4 -4 -4 -10z"/>
<path d="M5064 1812 c5 -8 0 -12 -13 -12 -11 0 -37 -10 -57 -22 -21 -12 -35
-17 -31 -11 5 7 0 9 -13 6 -11 -3 -20 -8 -20 -12 0 -3 -16 -7 -37 -8 -20 -1
-39 -6 -42 -10 -10 -13 -89 -53 -106 -53 -14 0 -51 -23 -96 -59 -9 -8 -15 -20
-12 -28 3 -8 0 -13 -8 -11 -10 2 -14 -7 -14 -29 -1 -26 3 -33 20 -34 19 0 19
-1 1 -8 -14 -5 -16 -10 -8 -15 7 -4 12 -5 12 -2 0 3 11 1 24 -4 18 -6 28 -5
36 5 6 7 20 11 30 8 11 -3 20 0 20 6 0 6 6 11 14 11 7 0 24 8 37 19 13 10 30
16 37 14 6 -3 12 1 12 8 0 7 3 10 6 6 7 -7 75 19 84 32 3 5 22 17 42 28 21 11
34 23 31 27 -4 4 -1 5 7 1 17 -6 84 50 93 77 4 12 -2 23 -18 34 -14 9 -23 20
-20 24 3 5 0 12 -6 16 -8 4 -9 3 -5 -4z m16 -56 c0 -3 -4 -8 -10 -11 -5 -3
-10 -1 -10 4 0 6 5 11 10 11 6 0 10 -2 10 -4z"/>
<path d="M4516 1718 c5 -7 2 -9 -9 -5 -10 4 -21 -3 -32 -19 -9 -14 -26 -29
-38 -34 -86 -34 -105 -44 -101 -52 3 -4 -2 -5 -10 -2 -22 8 -76 -53 -75 -85 1
-14 1 -30 -1 -36 -5 -20 0 -36 10 -30 6 3 10 1 10 -5 0 -6 5 -8 10 -5 6 4 8
10 6 14 -3 4 1 8 9 8 8 0 12 -4 9 -9 -4 -5 3 -4 15 4 12 7 21 16 21 21 0 4 5
5 10 2 6 -3 10 -2 10 3 0 7 92 59 120 67 24 8 39 19 34 26 -3 5 0 9 5 9 6 0
10 4 9 9 -2 5 8 21 22 37 31 35 33 65 5 81 -26 16 -48 16 -39 1z"/>
<path d="M2890 1140 c0 -5 5 -10 11 -10 5 0 7 5 4 10 -3 6 -8 10 -11 10 -2 0
-4 -4 -4 -10z"/>
<path d="M3240 690 c-12 -7 -10 -9 7 -7 12 0 19 5 17 9 -6 10 -6 10 -24 -2z"/>
<path d="M2879 441 c-1 -3 -1 -10 0 -15 1 -5 -4 -4 -12 2 -11 10 -17 9 -26 -1
-6 -8 -8 -17 -4 -21 4 -4 0 -4 -10 0 -10 3 -17 1 -17 -5 0 -6 -4 -10 -9 -8
-12 3 -83 -92 -76 -104 4 -5 3 -9 -2 -8 -20 3 -29 -3 -41 -31 -8 -18 -21 -30
-33 -30 -11 0 -19 -7 -19 -16 0 -9 5 -12 12 -8 7 4 8 3 4 -4 -4 -6 -13 -9 -21
-6 -8 4 -12 10 -9 15 3 5 -12 1 -33 -8 -21 -10 -39 -21 -41 -25 -2 -5 -9 -8
-16 -8 -7 0 -26 -11 -41 -24 -24 -21 -27 -27 -16 -40 8 -9 10 -16 6 -16 -4 0
-2 -6 4 -13 6 -8 8 -17 4 -21 -4 -4 0 -4 9 -1 9 4 19 2 22 -4 6 -10 35 -4 46
8 8 9 61 38 122 68 32 15 61 35 64 46 3 10 8 16 12 13 7 -8 42 46 36 56 -3 4
2 5 10 2 10 -4 19 2 25 17 5 13 18 34 29 45 12 12 18 25 15 28 -4 3 -1 6 6 6
13 0 47 37 51 55 1 6 7 16 13 24 9 12 9 13 0 7 -8 -4 -13 -2 -13 7 0 14 -49
31 -51 18z"/>
</g>
</svg>
